<svg width="73" height="95" viewBox="0 0 73 95" fill="none" xmlns="http://www.w3.org/2000/svg">
<g filter="url(#filter0_d_40_48)">
<mask id="path-1-outside-1_40_48" maskUnits="userSpaceOnUse" x="3.65576" y="-0.519531" width="66" height="87" fill="black">
<rect fill="white" x="3.65576" y="-0.519531" width="66" height="87"/>
<path d="M4.99976 85.4805V1.00047H23.4318V85.4805H4.99976ZM13.8318 53.8645V38.7605H63.1118V53.8645H13.8318ZM13.8318 16.7445V1.00047H67.8478V16.7445H13.8318Z"/>
</mask>
<path d="M4.99976 85.4805V1.00047H23.4318V85.4805H4.99976ZM13.8318 53.8645V38.7605H63.1118V53.8645H13.8318ZM13.8318 16.7445V1.00047H67.8478V16.7445H13.8318Z" fill="#F8F9FA"/>
<path d="M4.99976 85.4805H3.99976V86.4805H4.99976V85.4805ZM4.99976 1.00047V0.000465393H3.99976V1.00047H4.99976ZM23.4318 1.00047H24.4318V0.000465393H23.4318V1.00047ZM23.4318 85.4805V86.4805H24.4318V85.4805H23.4318ZM13.8318 53.8645H12.8318V54.8645H13.8318V53.8645ZM13.8318 38.7605V37.7605H12.8318V38.7605H13.8318ZM63.1118 38.7605H64.1118V37.7605H63.1118V38.7605ZM63.1118 53.8645V54.8645H64.1118V53.8645H63.1118ZM13.8318 16.7445H12.8318V17.7445H13.8318V16.7445ZM13.8318 1.00047V0.000465393H12.8318V1.00047H13.8318ZM67.8478 1.00047H68.8478V0.000465393H67.8478V1.00047ZM67.8478 16.7445V17.7445H68.8478V16.7445H67.8478ZM4.99976 85.4805H5.99976V1.00047H4.99976H3.99976V85.4805H4.99976ZM4.99976 1.00047V2.00047H23.4318V1.00047V0.000465393H4.99976V1.00047ZM23.4318 1.00047H22.4318V85.4805H23.4318H24.4318V1.00047H23.4318ZM23.4318 85.4805V84.4805H4.99976V85.4805V86.4805H23.4318V85.4805ZM13.8318 53.8645H14.8318V38.7605H13.8318H12.8318V53.8645H13.8318ZM13.8318 38.7605V39.7605H63.1118V38.7605V37.7605H13.8318V38.7605ZM63.1118 38.7605H62.1118V53.8645H63.1118H64.1118V38.7605H63.1118ZM63.1118 53.8645V52.8645H13.8318V53.8645V54.8645H63.1118V53.8645ZM13.8318 16.7445H14.8318V1.00047H13.8318H12.8318V16.7445H13.8318ZM13.8318 1.00047V2.00047H67.8478V1.00047V0.000465393H13.8318V1.00047ZM67.8478 1.00047H66.8478V16.7445H67.8478H68.8478V1.00047H67.8478ZM67.8478 16.7445V15.7445H13.8318V16.7445V17.7445H67.8478V16.7445Z" fill="black" mask="url(#path-1-outside-1_40_48)"/>
</g>
<defs>
<filter id="filter0_d_40_48" x="0" y="0" width="72.8477" height="94.4805" filterUnits="userSpaceOnUse" color-interpolation-filters="sRGB">
<feFlood flood-opacity="0" result="BackgroundImageFix"/>
<feColorMatrix in="SourceAlpha" type="matrix" values="0 0 0 0 0 0 0 0 0 0 0 0 0 0 0 0 0 0 127 0" result="hardAlpha"/>
<feOffset dy="4"/>
<feGaussianBlur stdDeviation="2"/>
<feComposite in2="hardAlpha" operator="out"/>
<feColorMatrix type="matrix" values="0 0 0 0 0 0 0 0 0 0 0 0 0 0 0 0 0 0 0.25 0"/>
<feBlend mode="normal" in2="BackgroundImageFix" result="effect1_dropShadow_40_48"/>
<feBlend mode="normal" in="SourceGraphic" in2="effect1_dropShadow_40_48" result="shape"/>
</filter>
</defs>
</svg>
