<svg width="56" height="79" viewBox="0 0 56 79" fill="none" xmlns="http://www.w3.org/2000/svg">
<g filter="url(#filter0_d_39_9)">
<mask id="path-1-outside-1_39_9" maskUnits="userSpaceOnUse" x="3.55176" y="-0.263672" width="48" height="71" fill="black">
<rect fill="white" x="3.55176" y="-0.263672" width="48" height="71"/>
<path d="M4.99976 69.7363V37.2243V2.53632H20.2318L20.3598 25.4483H22.7918C23.4744 19.731 24.6264 15.0803 26.2478 11.4963C27.9544 7.91233 30.3011 5.26699 33.2878 3.56033C36.2744 1.85366 39.9864 1.00033 44.4238 1.00033C45.1918 1.00033 46.0024 1.04299 46.8558 1.12833C47.7944 1.12833 48.8611 1.25632 50.0558 1.51232L49.2878 21.0963C48.0078 20.499 46.5998 20.0723 45.0638 19.8163C43.5278 19.5603 42.1624 19.4323 40.9678 19.4323C37.6398 19.4323 34.7811 20.2003 32.3918 21.7363C30.0024 23.2723 28.0398 25.491 26.5038 28.3923C25.0531 31.2083 24.0718 34.6643 23.5598 38.7603V69.7363H4.99976Z"/>
</mask>
<path d="M4.99976 69.7363V37.2243V2.53632H20.2318L20.3598 25.4483H22.7918C23.4744 19.731 24.6264 15.0803 26.2478 11.4963C27.9544 7.91233 30.3011 5.26699 33.2878 3.56033C36.2744 1.85366 39.9864 1.00033 44.4238 1.00033C45.1918 1.00033 46.0024 1.04299 46.8558 1.12833C47.7944 1.12833 48.8611 1.25632 50.0558 1.51232L49.2878 21.0963C48.0078 20.499 46.5998 20.0723 45.0638 19.8163C43.5278 19.5603 42.1624 19.4323 40.9678 19.4323C37.6398 19.4323 34.7811 20.2003 32.3918 21.7363C30.0024 23.2723 28.0398 25.491 26.5038 28.3923C25.0531 31.2083 24.0718 34.6643 23.5598 38.7603V69.7363H4.99976Z" fill="#F8F9FA"/>
<path d="M4.99976 69.7363H3.99976V70.7363H4.99976V69.7363ZM4.99976 2.53632V1.53632H3.99976V2.53632H4.99976ZM20.2318 2.53632L21.2317 2.53074L21.2262 1.53632H20.2318V2.53632ZM20.3598 25.4483L19.3598 25.4539L19.3653 26.4483H20.3598V25.4483ZM22.7918 25.4483V26.4483H23.6795L23.7847 25.5669L22.7918 25.4483ZM26.2478 11.4963L25.3449 11.0664L25.3407 11.0752L25.3367 11.0842L26.2478 11.4963ZM33.2878 3.56033L32.7916 2.69209V2.69209L33.2878 3.56033ZM46.8558 1.12833L46.7563 2.12337L46.8059 2.12833H46.8558V1.12833ZM50.0558 1.51232L51.055 1.55151L51.088 0.7108L50.2653 0.534515L50.0558 1.51232ZM49.2878 21.0963L48.8649 22.0025L50.228 22.6387L50.287 21.1355L49.2878 21.0963ZM45.0638 19.8163L44.8994 20.8027V20.8027L45.0638 19.8163ZM32.3918 21.7363L31.851 20.8951V20.8951L32.3918 21.7363ZM26.5038 28.3923L25.6199 27.9244L25.6148 27.9344L26.5038 28.3923ZM23.5598 38.7603L22.5675 38.6363L22.5598 38.6981V38.7603H23.5598ZM23.5598 69.7363V70.7363H24.5598V69.7363H23.5598ZM4.99976 69.7363H5.99976V37.2243H4.99976H3.99976V69.7363H4.99976ZM4.99976 37.2243H5.99976V2.53632H4.99976H3.99976V37.2243H4.99976ZM4.99976 2.53632V3.53632H20.2318V2.53632V1.53632H4.99976V2.53632ZM20.2318 2.53632L19.2318 2.54191L19.3598 25.4539L20.3598 25.4483L21.3597 25.4427L21.2317 2.53074L20.2318 2.53632ZM20.3598 25.4483V26.4483H22.7918V25.4483V24.4483H20.3598V25.4483ZM22.7918 25.4483L23.7847 25.5669C24.4603 19.9085 25.5943 15.3671 27.1589 11.9085L26.2478 11.4963L25.3367 11.0842C23.6586 14.7936 22.4885 19.5535 21.7988 25.3298L22.7918 25.4483ZM26.2478 11.4963L27.1506 11.9263C28.7835 8.49717 31.0005 6.01907 33.7839 4.42857L33.2878 3.56033L32.7916 2.69209C29.6017 4.51492 27.1253 7.32749 25.3449 11.0664L26.2478 11.4963ZM33.2878 3.56033L33.7839 4.42857C36.5818 2.82979 40.1112 2.00033 44.4238 2.00033V1.00033V0.000328064C39.8617 0.000328064 35.9671 0.877533 32.7916 2.69209L33.2878 3.56033ZM44.4238 1.00033V2.00033C45.155 2.00033 45.9322 2.04096 46.7563 2.12337L46.8558 1.12833L46.9553 0.133286C46.0726 0.0450287 45.2286 0.000328064 44.4238 0.000328064V1.00033ZM46.8558 1.12833V2.12833C47.7066 2.12833 48.701 2.24473 49.8462 2.49013L50.0558 1.51232L50.2653 0.534515C49.0211 0.267921 47.8822 0.128326 46.8558 0.128326V1.12833ZM50.0558 1.51232L49.0565 1.47314L48.2885 21.0571L49.2878 21.0963L50.287 21.1355L51.055 1.55151L50.0558 1.51232ZM49.2878 21.0963L49.7106 20.1901C48.3406 19.5508 46.8445 19.0993 45.2282 18.8299L45.0638 19.8163L44.8994 20.8027C46.355 21.0453 47.6749 21.4472 48.8649 22.0025L49.2878 21.0963ZM45.0638 19.8163L45.2282 18.8299C43.6532 18.5674 42.2311 18.4323 40.9678 18.4323V19.4323V20.4323C42.0937 20.4323 43.4024 20.5532 44.8994 20.8027L45.0638 19.8163ZM40.9678 19.4323V18.4323C37.4815 18.4323 34.4277 19.2387 31.851 20.8951L32.3918 21.7363L32.9325 22.5775C35.1345 21.1619 37.798 20.4323 40.9678 20.4323V19.4323ZM32.3918 21.7363L31.851 20.8951C29.296 22.5376 27.2237 24.8952 25.62 27.9244L26.5038 28.3923L27.3875 28.8602C28.8558 26.0868 30.7088 24.007 32.9325 22.5775L32.3918 21.7363ZM26.5038 28.3923L25.6148 27.9344C24.0968 30.881 23.0899 34.4572 22.5675 38.6363L23.5598 38.7603L24.552 38.8844C25.0537 34.8714 26.0094 31.5356 27.3927 28.8503L26.5038 28.3923ZM23.5598 38.7603H22.5598V69.7363H23.5598H24.5598V38.7603H23.5598ZM23.5598 69.7363V68.7363H4.99976V69.7363V70.7363H23.5598V69.7363Z" fill="black" mask="url(#path-1-outside-1_39_9)"/>
</g>
<defs>
<filter id="filter0_d_39_9" x="0" y="0" width="55.0879" height="78.7363" filterUnits="userSpaceOnUse" color-interpolation-filters="sRGB">
<feFlood flood-opacity="0" result="BackgroundImageFix"/>
<feColorMatrix in="SourceAlpha" type="matrix" values="0 0 0 0 0 0 0 0 0 0 0 0 0 0 0 0 0 0 127 0" result="hardAlpha"/>
<feOffset dy="4"/>
<feGaussianBlur stdDeviation="2"/>
<feComposite in2="hardAlpha" operator="out"/>
<feColorMatrix type="matrix" values="0 0 0 0 0 0 0 0 0 0 0 0 0 0 0 0 0 0 0.25 0"/>
<feBlend mode="normal" in2="BackgroundImageFix" result="effect1_dropShadow_39_9"/>
<feBlend mode="normal" in="SourceGraphic" in2="effect1_dropShadow_39_9" result="shape"/>
</filter>
</defs>
</svg>
