<svg width="79" height="101" viewBox="0 0 79 101" fill="none" xmlns="http://www.w3.org/2000/svg">
<g filter="url(#filter0_d_39_41)">
<mask id="path-1-outside-1_39_41" maskUnits="userSpaceOnUse" x="3.552" y="-0.0078125" width="71" height="93" fill="black">
<rect fill="white" x="3.552" y="-0.0078125" width="71" height="93"/>
<path d="M5 91.4962V36.9682V2.79218H20.232L20.36 21.4802L22.664 21.6082C23.432 17.0855 24.7547 13.2882 26.632 10.2162C28.5947 7.14419 31.112 4.84018 34.184 3.30418C37.256 1.76818 40.7973 1.00018 44.808 1.00018C50.7813 1.00018 55.9013 2.49352 60.168 5.48019C64.4347 8.38152 67.6773 12.5202 69.896 17.8962C72.2 23.1869 73.352 29.4589 73.352 36.7122C73.352 43.4535 72.328 49.4695 70.28 54.7602C68.232 59.9655 65.16 64.1042 61.064 67.1762C57.0533 70.2482 52.0187 71.7842 45.96 71.7842C41.6933 71.7842 38.0667 70.9735 35.08 69.3522C32.1787 67.7309 29.7467 65.4695 27.784 62.5682C25.9067 59.5815 24.328 56.0402 23.048 51.9442H20.616C21.128 54.2482 21.5973 56.5949 22.024 58.9842C22.4507 61.3735 22.792 63.7202 23.048 66.0242C23.304 68.2429 23.432 70.4189 23.432 72.5522V91.4962H5ZM39.56 57.0642C42.632 57.0642 45.2347 56.2109 47.368 54.5042C49.5013 52.7975 51.1227 50.4082 52.232 47.3362C53.4267 44.2642 54.024 40.7655 54.024 36.8402C54.024 32.5735 53.4267 28.9469 52.232 25.9602C51.0373 22.8882 49.3307 20.4989 47.112 18.7922C44.8933 17.0855 42.248 16.2322 39.176 16.2322C36.4453 16.2322 34.0987 16.8295 32.136 18.0242C30.1733 19.2189 28.5093 20.7975 27.144 22.7602C25.864 24.7229 24.9253 26.8562 24.328 29.1602C23.7307 31.3789 23.432 33.5122 23.432 35.5602V37.9922C23.432 39.6135 23.6453 41.3202 24.072 43.1122C24.4987 44.8189 25.1813 46.5255 26.12 48.2322C27.0587 49.8535 28.168 51.3469 29.448 52.7122C30.728 53.9922 32.2213 55.0589 33.928 55.9122C35.6347 56.6802 37.512 57.0642 39.56 57.0642Z"/>
</mask>
<path d="M5 91.4962V36.9682V2.79218H20.232L20.36 21.4802L22.664 21.6082C23.432 17.0855 24.7547 13.2882 26.632 10.2162C28.5947 7.14419 31.112 4.84018 34.184 3.30418C37.256 1.76818 40.7973 1.00018 44.808 1.00018C50.7813 1.00018 55.9013 2.49352 60.168 5.48019C64.4347 8.38152 67.6773 12.5202 69.896 17.8962C72.2 23.1869 73.352 29.4589 73.352 36.7122C73.352 43.4535 72.328 49.4695 70.28 54.7602C68.232 59.9655 65.16 64.1042 61.064 67.1762C57.0533 70.2482 52.0187 71.7842 45.96 71.7842C41.6933 71.7842 38.0667 70.9735 35.08 69.3522C32.1787 67.7309 29.7467 65.4695 27.784 62.5682C25.9067 59.5815 24.328 56.0402 23.048 51.9442H20.616C21.128 54.2482 21.5973 56.5949 22.024 58.9842C22.4507 61.3735 22.792 63.7202 23.048 66.0242C23.304 68.2429 23.432 70.4189 23.432 72.5522V91.4962H5ZM39.56 57.0642C42.632 57.0642 45.2347 56.2109 47.368 54.5042C49.5013 52.7975 51.1227 50.4082 52.232 47.3362C53.4267 44.2642 54.024 40.7655 54.024 36.8402C54.024 32.5735 53.4267 28.9469 52.232 25.9602C51.0373 22.8882 49.3307 20.4989 47.112 18.7922C44.8933 17.0855 42.248 16.2322 39.176 16.2322C36.4453 16.2322 34.0987 16.8295 32.136 18.0242C30.1733 19.2189 28.5093 20.7975 27.144 22.7602C25.864 24.7229 24.9253 26.8562 24.328 29.1602C23.7307 31.3789 23.432 33.5122 23.432 35.5602V37.9922C23.432 39.6135 23.6453 41.3202 24.072 43.1122C24.4987 44.8189 25.1813 46.5255 26.12 48.2322C27.0587 49.8535 28.168 51.3469 29.448 52.7122C30.728 53.9922 32.2213 55.0589 33.928 55.9122C35.6347 56.6802 37.512 57.0642 39.56 57.0642Z" fill="#F8F9FA"/>
<path d="M5 91.4962H4V92.4962H5V91.4962ZM5 2.79218V1.79218H4V2.79218H5ZM20.232 2.79218L21.232 2.78533L21.2252 1.79218H20.232V2.79218ZM20.36 21.4802L19.36 21.487L19.3665 22.4265L20.3045 22.4786L20.36 21.4802ZM22.664 21.6082L22.6085 22.6066L23.5004 22.6562L23.6499 21.7756L22.664 21.6082ZM26.632 10.2162L25.7893 9.6778L25.7839 9.68621L25.7787 9.69474L26.632 10.2162ZM34.184 3.30418L33.7368 2.40976V2.40976L34.184 3.30418ZM60.168 5.48019L59.5945 6.29949L59.6057 6.30711L60.168 5.48019ZM69.896 17.8962L68.9716 18.2777L68.9753 18.2866L68.9792 18.2955L69.896 17.8962ZM70.28 54.7602L71.2106 55.1263L71.2126 55.1212L70.28 54.7602ZM61.064 67.1762L60.464 66.3761L60.4559 66.3823L61.064 67.1762ZM35.08 69.3522L34.5921 70.2252L34.6029 70.231L35.08 69.3522ZM27.784 62.5682L26.9374 63.1004L26.9463 63.1146L26.9557 63.1285L27.784 62.5682ZM23.048 51.9442L24.0025 51.6459L23.7832 50.9442H23.048V51.9442ZM20.616 51.9442V50.9442H19.3694L19.6398 52.1611L20.616 51.9442ZM22.024 58.9842L23.0084 58.8084V58.8084L22.024 58.9842ZM23.048 66.0242L22.0541 66.1346L22.0546 66.1388L23.048 66.0242ZM23.432 91.4962V92.4962H24.432V91.4962H23.432ZM47.368 54.5042L46.7433 53.7233V53.7233L47.368 54.5042ZM52.232 47.3362L51.3 46.9737L51.2956 46.9851L51.2915 46.9965L52.232 47.3362ZM52.232 25.9602L51.3 26.3226L51.3035 26.3316L52.232 25.9602ZM47.112 18.7922L46.5023 19.5848V19.5848L47.112 18.7922ZM27.144 22.7602L26.3231 22.1891L26.3146 22.2014L26.3064 22.2139L27.144 22.7602ZM24.328 29.1602L25.2937 29.4202L25.296 29.4111L24.328 29.1602ZM24.072 43.1122L23.0991 43.3438L23.1019 43.3547L24.072 43.1122ZM26.12 48.2322L25.2438 48.7141L25.2491 48.7237L25.2546 48.7332L26.12 48.2322ZM29.448 52.7122L28.7185 53.3961L28.7295 53.4079L28.7409 53.4193L29.448 52.7122ZM33.928 55.9122L33.4808 56.8066L33.499 56.8157L33.5176 56.8241L33.928 55.9122ZM5 91.4962H6V36.9682H5H4V91.4962H5ZM5 36.9682H6V2.79218H5H4V36.9682H5ZM5 2.79218V3.79218H20.232V2.79218V1.79218H5V2.79218ZM20.232 2.79218L19.232 2.79903L19.36 21.487L20.36 21.4802L21.36 21.4733L21.232 2.78533L20.232 2.79218ZM20.36 21.4802L20.3045 22.4786L22.6085 22.6066L22.664 21.6082L22.7195 20.6097L20.4155 20.4817L20.36 21.4802ZM22.664 21.6082L23.6499 21.7756C24.4022 17.3454 25.6897 13.6759 27.4853 10.7376L26.632 10.2162L25.7787 9.69474C23.8196 12.9005 22.4618 16.8257 21.6781 21.4408L22.664 21.6082ZM26.632 10.2162L27.4747 10.7546C29.3463 7.82507 31.7308 5.64882 34.6312 4.19861L34.184 3.30418L33.7368 2.40976C30.4932 4.03155 27.843 6.4633 25.7893 9.6778L26.632 10.2162ZM34.184 3.30418L34.6312 4.19861C37.5429 2.7428 40.9266 2.00018 44.808 2.00018V1.00018V0.000183105C40.6681 0.000183105 36.9692 0.793571 33.7368 2.40976L34.184 3.30418ZM44.808 1.00018V2.00018C50.6073 2.00018 55.5198 3.44711 59.5945 6.29942L60.168 5.48019L60.7415 4.66096C56.2829 1.53992 50.9553 0.000183105 44.808 0.000183105V1.00018ZM60.168 5.48019L59.6057 6.30711C63.6907 9.08494 66.8177 13.0586 68.9716 18.2777L69.896 17.8962L70.8204 17.5147C68.5369 11.9818 65.1786 7.6781 60.7303 4.65326L60.168 5.48019ZM69.896 17.8962L68.9792 18.2955C71.2162 23.4322 72.352 29.5621 72.352 36.7122H73.352H74.352C74.352 29.3556 73.1839 22.9415 70.8128 17.4969L69.896 17.8962ZM73.352 36.7122H72.352C72.352 43.3528 71.3433 49.2431 69.3474 54.3992L70.28 54.7602L71.2126 55.1212C73.3127 49.6959 74.352 43.5542 74.352 36.7122H73.352ZM70.28 54.7602L69.3494 54.3941C67.3628 59.4435 64.3982 63.4256 60.464 66.3762L61.064 67.1762L61.664 67.9762C65.9219 64.7828 69.1012 60.4876 71.2106 55.1263L70.28 54.7602ZM61.064 67.1762L60.4559 66.3823C56.6525 69.2955 51.844 70.7842 45.96 70.7842V71.7842V72.7842C52.1933 72.7842 57.4541 71.2008 61.6721 67.9701L61.064 67.1762ZM45.96 71.7842V70.7842C41.8182 70.7842 38.3645 69.9974 35.5571 68.4733L35.08 69.3522L34.6029 70.231C37.7688 71.9497 41.5685 72.7842 45.96 72.7842V71.7842ZM35.08 69.3522L35.5678 68.4792C32.8102 66.9382 30.4923 64.787 28.6123 62.0079L27.784 62.5682L26.9557 63.1285C29.0011 66.152 31.5471 68.5235 34.5922 70.2251L35.08 69.3522ZM27.784 62.5682L28.6306 62.036C26.8078 59.1361 25.2621 55.6767 24.0025 51.6459L23.048 51.9442L22.0935 52.2425C23.3939 56.4037 25.0055 60.027 26.9374 63.1004L27.784 62.5682ZM23.048 51.9442V50.9442H20.616V51.9442V52.9442H23.048V51.9442ZM20.616 51.9442L19.6398 52.1611C20.1487 54.4511 20.6153 56.784 21.0396 59.16L22.024 58.9842L23.0084 58.8084C22.5794 56.4057 22.1073 54.0453 21.5922 51.7273L20.616 51.9442ZM22.024 58.9842L21.0396 59.16C21.4626 61.5286 21.8007 63.8535 22.0541 66.1346L23.048 66.0242L24.0419 65.9138C23.7833 63.5869 23.4388 61.2184 23.0084 58.8084L22.024 58.9842ZM23.048 66.0242L22.0546 66.1388C22.3064 68.3212 22.432 70.4589 22.432 72.5522H23.432H24.432C24.432 70.3788 24.3016 68.1645 24.0414 65.9096L23.048 66.0242ZM23.432 72.5522H22.432V91.4962H23.432H24.432V72.5522H23.432ZM23.432 91.4962V90.4962H5V91.4962V92.4962H23.432V91.4962ZM39.56 57.0642V58.0642C42.8292 58.0642 45.66 57.1512 47.9927 55.2851L47.368 54.5042L46.7433 53.7233C44.8093 55.2705 42.4348 56.0642 39.56 56.0642V57.0642ZM47.368 54.5042L47.9927 55.2851C50.2959 53.4425 52.013 50.8871 53.1726 47.6758L52.232 47.3362L51.2915 46.9965C50.2324 49.9293 48.7068 52.1526 46.7433 53.7233L47.368 54.5042ZM52.232 47.3362L53.164 47.6986C54.4113 44.4913 55.024 40.8664 55.024 36.8402H54.024H53.024C53.024 40.6647 52.442 44.0371 51.3 46.9737L52.232 47.3362ZM54.024 36.8402H55.024C55.024 32.4855 54.4151 28.7253 53.1605 25.5888L52.232 25.9602L51.3035 26.3316C52.4383 29.1685 53.024 32.6615 53.024 36.8402H54.024ZM52.232 25.9602L53.164 25.5977C51.9151 22.3862 50.109 19.8359 47.7217 17.9996L47.112 18.7922L46.5023 19.5848C48.5523 21.1618 50.1596 23.3902 51.3 26.3226L52.232 25.9602ZM47.112 18.7922L47.7217 17.9996C45.311 16.1452 42.4458 15.2322 39.176 15.2322V16.2322V17.2322C42.0502 17.2322 44.4757 18.0259 46.5023 19.5848L47.112 18.7922ZM39.176 16.2322V15.2322C36.2968 15.2322 33.7627 15.8633 31.6161 17.17L32.136 18.0242L32.656 18.8784C34.4346 17.7957 36.5939 17.2322 39.176 17.2322V16.2322ZM32.136 18.0242L31.6161 17.17C29.5296 18.44 27.7646 20.1169 26.3231 22.1891L27.144 22.7602L27.9649 23.3312C29.254 21.4781 30.8171 19.9977 32.656 18.8784L32.136 18.0242ZM27.144 22.7602L26.3064 22.2139C24.9663 24.2688 23.9841 26.5021 23.36 28.9092L24.328 29.1602L25.296 29.4111C25.8666 27.2103 26.7617 25.177 27.9816 23.3065L27.144 22.7602ZM24.328 29.1602L23.3624 28.9002C22.745 31.1935 22.432 33.4145 22.432 35.5602H23.432H24.432C24.432 33.6099 24.7164 31.5642 25.2936 29.4202L24.328 29.1602ZM23.432 35.5602H22.432V37.9922H23.432H24.432V35.5602H23.432ZM23.432 37.9922H22.432C22.432 39.7012 22.6569 41.486 23.0992 43.3438L24.072 43.1122L25.0448 42.8806C24.6338 41.1544 24.432 39.5258 24.432 37.9922H23.432ZM24.072 43.1122L23.1019 43.3547C23.5515 45.1533 24.268 46.94 25.2438 48.7141L26.12 48.2322L26.9962 47.7503C26.0947 46.1111 25.4458 44.4844 25.0421 42.8697L24.072 43.1122ZM26.12 48.2322L25.2546 48.7332C26.2314 50.4204 27.3863 51.9751 28.7185 53.3961L29.448 52.7122L30.1775 52.0282C28.9497 50.7186 27.886 49.2866 26.9854 47.7311L26.12 48.2322ZM29.448 52.7122L28.7409 53.4193C30.1009 54.7793 31.6832 55.9078 33.4808 56.8066L33.928 55.9122L34.3752 55.0178C32.7595 54.2099 31.3551 53.205 30.1551 52.0051L29.448 52.7122ZM33.928 55.9122L33.5176 56.8241C35.3651 57.6555 37.384 58.0642 39.56 58.0642V57.0642V56.0642C37.64 56.0642 35.9043 55.7049 34.3384 55.0003L33.928 55.9122Z" fill="black" mask="url(#path-1-outside-1_39_41)"/>
</g>
<defs>
<filter id="filter0_d_39_41" x="0" y="0" width="78.3521" height="100.496" filterUnits="userSpaceOnUse" color-interpolation-filters="sRGB">
<feFlood flood-opacity="0" result="BackgroundImageFix"/>
<feColorMatrix in="SourceAlpha" type="matrix" values="0 0 0 0 0 0 0 0 0 0 0 0 0 0 0 0 0 0 127 0" result="hardAlpha"/>
<feOffset dy="4"/>
<feGaussianBlur stdDeviation="2"/>
<feComposite in2="hardAlpha" operator="out"/>
<feColorMatrix type="matrix" values="0 0 0 0 0 0 0 0 0 0 0 0 0 0 0 0 0 0 0.25 0"/>
<feBlend mode="normal" in2="BackgroundImageFix" result="effect1_dropShadow_39_41"/>
<feBlend mode="normal" in="SourceGraphic" in2="effect1_dropShadow_39_41" result="shape"/>
</filter>
</defs>
</svg>
