<svg width="79" height="104" viewBox="0 0 79 104" fill="none" xmlns="http://www.w3.org/2000/svg">
<g filter="url(#filter0_d_39_17)">
<mask id="path-1-outside-1_39_17" maskUnits="userSpaceOnUse" x="3.13574" y="-0.480469" width="72" height="96" fill="black">
<rect fill="white" x="3.13574" y="-0.480469" width="72" height="96"/>
<path d="M33.0317 94.3115C27.3997 94.3115 22.4504 92.8609 18.1837 89.9595C14.0024 87.0582 10.7597 82.9622 8.45574 77.6715C6.15174 72.3809 4.99974 66.1089 4.99974 58.8555C4.99974 52.0289 6.02374 45.9702 8.07174 40.6795C10.1197 35.3889 13.1491 31.2502 17.1597 28.2635C21.1704 25.2769 26.1624 23.7835 32.1357 23.7835C36.4877 23.7835 40.1571 24.5942 43.1437 26.2155C46.1304 27.8369 48.5624 30.2262 50.4397 33.3835C52.4024 36.4555 53.9384 40.1675 55.0477 44.5195H57.9917C57.3944 41.7889 56.8397 39.1435 56.3277 36.5835C55.9011 33.9382 55.5597 31.4209 55.3037 29.0315C55.0477 26.6422 54.9197 24.5515 54.9197 22.7595V0.999527H73.3517V59.4955V92.5195H57.9917V73.0635H55.4317C54.4931 77.8422 53.0424 81.8102 51.0797 84.9675C49.1171 88.1249 46.5997 90.4715 43.5277 92.0075C40.5411 93.5435 37.0424 94.3115 33.0317 94.3115ZM39.1757 79.2075C41.9917 79.2075 44.3811 78.6102 46.3437 77.4155C48.3064 76.2209 49.9277 74.6849 51.2077 72.8075C52.4877 70.8449 53.4264 68.7542 54.0237 66.5355C54.6211 64.2315 54.9197 62.0982 54.9197 60.1355V57.7035C54.9197 56.0822 54.6637 54.4182 54.1517 52.7115C53.7251 50.9195 53.0851 49.1702 52.2317 47.4635C51.3784 45.7569 50.3117 44.2635 49.0317 42.9835C47.7517 41.6182 46.2584 40.5515 44.5517 39.7835C42.8451 39.0155 40.9677 38.6315 38.9197 38.6315C35.8477 38.6315 33.2451 39.4849 31.1117 41.1915C28.9784 42.8982 27.3144 45.2875 26.1197 48.3595C24.9251 51.3462 24.3277 54.8449 24.3277 58.8555C24.3277 62.9515 24.9251 66.5355 26.1197 69.6075C27.3997 72.6795 29.1491 75.0689 31.3677 76.7755C33.5864 78.3969 36.1891 79.2075 39.1757 79.2075Z"/>
</mask>
<path d="M33.0317 94.3115C27.3997 94.3115 22.4504 92.8609 18.1837 89.9595C14.0024 87.0582 10.7597 82.9622 8.45574 77.6715C6.15174 72.3809 4.99974 66.1089 4.99974 58.8555C4.99974 52.0289 6.02374 45.9702 8.07174 40.6795C10.1197 35.3889 13.1491 31.2502 17.1597 28.2635C21.1704 25.2769 26.1624 23.7835 32.1357 23.7835C36.4877 23.7835 40.1571 24.5942 43.1437 26.2155C46.1304 27.8369 48.5624 30.2262 50.4397 33.3835C52.4024 36.4555 53.9384 40.1675 55.0477 44.5195H57.9917C57.3944 41.7889 56.8397 39.1435 56.3277 36.5835C55.9011 33.9382 55.5597 31.4209 55.3037 29.0315C55.0477 26.6422 54.9197 24.5515 54.9197 22.7595V0.999527H73.3517V59.4955V92.5195H57.9917V73.0635H55.4317C54.4931 77.8422 53.0424 81.8102 51.0797 84.9675C49.1171 88.1249 46.5997 90.4715 43.5277 92.0075C40.5411 93.5435 37.0424 94.3115 33.0317 94.3115ZM39.1757 79.2075C41.9917 79.2075 44.3811 78.6102 46.3437 77.4155C48.3064 76.2209 49.9277 74.6849 51.2077 72.8075C52.4877 70.8449 53.4264 68.7542 54.0237 66.5355C54.6211 64.2315 54.9197 62.0982 54.9197 60.1355V57.7035C54.9197 56.0822 54.6637 54.4182 54.1517 52.7115C53.7251 50.9195 53.0851 49.1702 52.2317 47.4635C51.3784 45.7569 50.3117 44.2635 49.0317 42.9835C47.7517 41.6182 46.2584 40.5515 44.5517 39.7835C42.8451 39.0155 40.9677 38.6315 38.9197 38.6315C35.8477 38.6315 33.2451 39.4849 31.1117 41.1915C28.9784 42.8982 27.3144 45.2875 26.1197 48.3595C24.9251 51.3462 24.3277 54.8449 24.3277 58.8555C24.3277 62.9515 24.9251 66.5355 26.1197 69.6075C27.3997 72.6795 29.1491 75.0689 31.3677 76.7755C33.5864 78.3969 36.1891 79.2075 39.1757 79.2075Z" fill="#F8F9FA"/>
<path d="M18.1837 89.9595L17.6136 90.7812L17.6214 90.7865L18.1837 89.9595ZM8.45574 77.6715L9.37258 77.2723L8.45574 77.6715ZM8.07174 40.6795L7.13917 40.3185V40.3185L8.07174 40.6795ZM17.1597 28.2635L16.5625 27.4615H16.5625L17.1597 28.2635ZM50.4397 33.3835L49.5802 33.8946L49.5884 33.9084L49.597 33.9219L50.4397 33.3835ZM55.0477 44.5195L54.0787 44.7665L54.2707 45.5195H55.0477V44.5195ZM57.9917 44.5195V45.5195H59.2341L58.9686 44.3058L57.9917 44.5195ZM56.3277 36.5835L55.3405 36.7428L55.3435 36.7613L55.3472 36.7796L56.3277 36.5835ZM55.3037 29.0315L54.3094 29.1381V29.1381L55.3037 29.0315ZM54.9197 0.999527V-0.000473022H53.9197V0.999527H54.9197ZM73.3517 0.999527H74.3517V-0.000473022H73.3517V0.999527ZM73.3517 92.5195V93.5195H74.3517V92.5195H73.3517ZM57.9917 92.5195H56.9917V93.5195H57.9917V92.5195ZM57.9917 73.0635H58.9917V72.0635H57.9917V73.0635ZM55.4317 73.0635V72.0635H54.6091L54.4505 72.8708L55.4317 73.0635ZM51.0797 84.9675L50.2305 84.4396V84.4396L51.0797 84.9675ZM43.5277 92.0075L43.0805 91.113L43.0704 91.1182L43.5277 92.0075ZM46.3437 77.4155L46.8637 78.2697V78.2697L46.3437 77.4155ZM51.2077 72.8075L52.034 73.3709L52.0397 73.3624L52.0454 73.3538L51.2077 72.8075ZM54.0237 66.5355L54.9894 66.7955L54.9917 66.7865L54.0237 66.5355ZM54.1517 52.7115L53.1789 52.9431L53.1856 52.9712L53.1939 52.9989L54.1517 52.7115ZM52.2317 47.4635L51.3373 47.9107V47.9107L52.2317 47.4635ZM49.0317 42.9835L48.3022 43.6675L48.3132 43.6792L48.3246 43.6906L49.0317 42.9835ZM44.5517 39.7835L44.1414 40.6954V40.6954L44.5517 39.7835ZM31.1117 41.1915L31.7364 41.9724L31.1117 41.1915ZM26.1197 48.3595L27.0483 48.7309L27.0517 48.722L26.1197 48.3595ZM26.1197 69.6075L25.1877 69.97L25.1921 69.9811L25.1967 69.9921L26.1197 69.6075ZM31.3677 76.7755L30.758 77.5682L30.7678 77.5757L30.7777 77.5829L31.3677 76.7755ZM33.0317 94.3115V93.3115C27.5811 93.3115 22.8317 91.9108 18.7461 89.1326L18.1837 89.9595L17.6214 90.7865C22.0691 93.8109 27.2184 95.3115 33.0317 95.3115V94.3115ZM18.1837 89.9595L18.7538 89.1379C14.7447 86.3561 11.6126 82.416 9.37258 77.2723L8.45574 77.6715L7.53891 78.0708C9.90688 83.5084 13.2601 87.7603 17.6137 90.7811L18.1837 89.9595ZM8.45574 77.6715L9.37258 77.2723C7.13559 72.1355 5.99974 66.0056 5.99974 58.8555H4.99974H3.99974C3.99974 66.2121 5.1679 72.6263 7.53891 78.0708L8.45574 77.6715ZM4.99974 58.8555H5.99974C5.99974 52.1279 7.00893 46.1953 9.00431 41.0405L8.07174 40.6795L7.13917 40.3185C5.03856 45.7451 3.99974 51.9299 3.99974 58.8555H4.99974ZM8.07174 40.6795L9.00431 41.0405C10.9937 35.9013 13.917 31.9252 17.757 29.0656L17.1597 28.2635L16.5625 27.4615C12.3812 30.5752 9.24579 34.8765 7.13917 40.3185L8.07174 40.6795ZM17.1597 28.2635L17.757 29.0656C21.5635 26.231 26.3345 24.7835 32.1357 24.7835V23.7835V22.7835C25.9903 22.7835 20.7774 24.3227 16.5625 27.4615L17.1597 28.2635ZM32.1357 23.7835V24.7835C36.3667 24.7835 39.8619 25.5718 42.6667 27.0944L43.1437 26.2155L43.6208 25.3367C40.4523 23.6166 36.6088 22.7835 32.1357 22.7835V23.7835ZM43.1437 26.2155L42.6667 27.0944C45.4823 28.6229 47.7872 30.8791 49.5802 33.8946L50.4397 33.3835L51.2993 32.8725C49.3376 29.5733 46.7785 27.0508 43.6208 25.3367L43.1437 26.2155ZM50.4397 33.3835L49.597 33.9219C51.4908 36.8861 52.9898 40.4948 54.0787 44.7665L55.0477 44.5195L56.0168 44.2725C54.887 39.8403 53.314 36.025 51.2824 32.8451L50.4397 33.3835ZM55.0477 44.5195V45.5195H57.9917V44.5195V43.5195H55.0477V44.5195ZM57.9917 44.5195L58.9686 44.3058C58.3725 41.5806 57.8191 38.9412 57.3083 36.3874L56.3277 36.5835L55.3472 36.7796C55.8604 39.3459 56.4163 41.9971 57.0148 44.7332L57.9917 44.5195ZM56.3277 36.5835L57.315 36.4243C56.8908 33.7945 56.552 31.2948 56.2981 28.925L55.3037 29.0315L54.3094 29.1381C54.5675 31.5469 54.9113 34.0819 55.3405 36.7428L56.3277 36.5835ZM55.3037 29.0315L56.2981 28.925C56.0447 26.56 55.9197 24.5063 55.9197 22.7595H54.9197H53.9197C53.9197 24.5967 54.0508 26.7244 54.3094 29.1381L55.3037 29.0315ZM54.9197 22.7595H55.9197V0.999527H54.9197H53.9197V22.7595H54.9197ZM54.9197 0.999527V1.99953H73.3517V0.999527V-0.000473022H54.9197V0.999527ZM73.3517 0.999527H72.3517V59.4955H73.3517H74.3517V0.999527H73.3517ZM73.3517 59.4955H72.3517V92.5195H73.3517H74.3517V59.4955H73.3517ZM73.3517 92.5195V91.5195H57.9917V92.5195V93.5195H73.3517V92.5195ZM57.9917 92.5195H58.9917V73.0635H57.9917H56.9917V92.5195H57.9917ZM57.9917 73.0635V72.0635H55.4317V73.0635V74.0635H57.9917V73.0635ZM55.4317 73.0635L54.4505 72.8708C53.5283 77.5655 52.1128 81.4115 50.2305 84.4396L51.0797 84.9675L51.929 85.4955C53.972 82.2089 55.4578 78.1189 56.413 73.2563L55.4317 73.0635ZM51.0797 84.9675L50.2305 84.4396C48.357 87.4534 45.9736 89.6666 43.0805 91.1131L43.5277 92.0075L43.975 92.902C47.2259 91.2765 49.8771 88.7963 51.929 85.4955L51.0797 84.9675ZM43.5277 92.0075L43.0704 91.1182C40.2502 92.5686 36.914 93.3115 33.0317 93.3115V94.3115V95.3115C37.1708 95.3115 40.832 94.5184 43.9851 92.8968L43.5277 92.0075ZM39.1757 79.2075V80.2075C42.1338 80.2075 44.7125 79.5792 46.8637 78.2697L46.3437 77.4155L45.8238 76.5613C44.0497 77.6412 41.8497 78.2075 39.1757 78.2075V79.2075ZM46.3437 77.4155L46.8637 78.2697C48.9466 77.0019 50.6728 75.3672 52.034 73.3709L51.2077 72.8075L50.3815 72.2442C49.1827 74.0025 47.6662 75.4398 45.8238 76.5613L46.3437 77.4155ZM51.2077 72.8075L52.0454 73.3538C53.3817 71.3048 54.3641 69.1178 54.9894 66.7955L54.0237 66.5355L53.0581 66.2756C52.4887 68.3906 51.5938 70.3849 50.3701 72.2613L51.2077 72.8075ZM54.0237 66.5355L54.9917 66.7865C55.606 64.4173 55.9197 62.1986 55.9197 60.1355H54.9197H53.9197C53.9197 61.9978 53.6362 64.0458 53.0557 66.2846L54.0237 66.5355ZM54.9197 60.1355H55.9197V57.7035H54.9197H53.9197V60.1355H54.9197ZM54.9197 57.7035H55.9197C55.9197 55.9758 55.6468 54.2149 55.1096 52.4242L54.1517 52.7115L53.1939 52.9989C53.6807 54.6215 53.9197 56.1886 53.9197 57.7035H54.9197ZM54.1517 52.7115L55.1245 52.4799C54.6795 50.6106 54.0126 48.7891 53.1262 47.0163L52.2317 47.4635L51.3373 47.9107C52.1576 49.5513 52.7707 51.2284 53.1789 52.9431L54.1517 52.7115ZM52.2317 47.4635L53.1262 47.0163C52.2274 45.2187 51.0989 43.6365 49.7389 42.2764L49.0317 42.9835L48.3246 43.6906C49.5246 44.8906 50.5294 46.295 51.3373 47.9107L52.2317 47.4635ZM49.0317 42.9835L49.7613 42.2996C48.391 40.8379 46.7892 39.6938 44.9621 38.8716L44.5517 39.7835L44.1414 40.6954C45.7276 41.4093 47.1125 42.3985 48.3022 43.6675L49.0317 42.9835ZM44.5517 39.7835L44.9621 38.8716C43.1147 38.0403 41.0957 37.6315 38.9197 37.6315V38.6315V39.6315C40.8397 39.6315 42.5755 39.9908 44.1414 40.6954L44.5517 39.7835ZM38.9197 38.6315V37.6315C35.6506 37.6315 32.8197 38.5445 30.487 40.4107L31.1117 41.1915L31.7364 41.9724C33.6705 40.4252 36.0449 39.6315 38.9197 39.6315V38.6315ZM31.1117 41.1915L30.487 40.4107C28.1904 42.248 26.433 44.7949 25.1877 47.9971L26.1197 48.3595L27.0517 48.722C28.1958 45.7802 29.7664 43.5484 31.7364 41.9724L31.1117 41.1915ZM26.1197 48.3595L25.1913 47.9881C23.9393 51.1181 23.3277 54.7479 23.3277 58.8555H24.3277H25.3277C25.3277 54.9418 25.9109 51.5743 27.0482 48.7309L26.1197 48.3595ZM24.3277 58.8555H23.3277C23.3277 63.0465 23.9387 66.7581 25.1877 69.97L26.1197 69.6075L27.0517 69.2451C25.9115 66.3129 25.3277 62.8566 25.3277 58.8555H24.3277ZM26.1197 69.6075L25.1967 69.9921C26.531 73.1946 28.3771 75.7366 30.758 77.5682L31.3677 76.7755L31.9775 75.9829C29.9211 74.4011 28.2684 72.1644 27.0428 69.2229L26.1197 69.6075ZM31.3677 76.7755L30.7777 77.5829C33.1827 79.3404 35.9964 80.2075 39.1757 80.2075V79.2075V78.2075C36.3817 78.2075 33.9901 77.4533 31.9578 75.9681L31.3677 76.7755Z" fill="black" mask="url(#path-1-outside-1_39_17)"/>
</g>
<defs>
<filter id="filter0_d_39_17" x="0" y="0" width="78.3516" height="103.312" filterUnits="userSpaceOnUse" color-interpolation-filters="sRGB">
<feFlood flood-opacity="0" result="BackgroundImageFix"/>
<feColorMatrix in="SourceAlpha" type="matrix" values="0 0 0 0 0 0 0 0 0 0 0 0 0 0 0 0 0 0 127 0" result="hardAlpha"/>
<feOffset dy="4"/>
<feGaussianBlur stdDeviation="2"/>
<feComposite in2="hardAlpha" operator="out"/>
<feColorMatrix type="matrix" values="0 0 0 0 0 0 0 0 0 0 0 0 0 0 0 0 0 0 0.25 0"/>
<feBlend mode="normal" in2="BackgroundImageFix" result="effect1_dropShadow_39_17"/>
<feBlend mode="normal" in="SourceGraphic" in2="effect1_dropShadow_39_17" result="shape"/>
</filter>
</defs>
</svg>
