<svg width="79" height="81" viewBox="0 0 79 81" fill="none" xmlns="http://www.w3.org/2000/svg">
<g filter="url(#filter0_d_39_11)">
<mask id="path-1-outside-1_39_11" maskUnits="userSpaceOnUse" x="3.26367" y="-0.0078125" width="72" height="73" fill="black">
<rect fill="white" x="3.26367" y="-0.0078125" width="72" height="73"/>
<path d="M39.1757 71.7842C32.4343 71.7842 26.5037 70.4615 21.3837 67.8162C16.2637 65.0855 12.253 61.1175 9.35167 55.9122C6.45034 50.6215 4.99967 44.0509 4.99967 36.2002C4.99967 28.3495 6.45034 21.8215 9.35167 16.6162C12.3383 11.4109 16.3917 7.52819 21.5117 4.96819C26.717 2.32285 32.605 1.00018 39.1757 1.00018C45.917 1.00018 51.8477 2.32285 56.9677 4.96819C62.173 7.61352 66.2263 11.5815 69.1277 16.8722C72.1143 22.0775 73.6077 28.6055 73.6077 36.4562C73.6077 44.3922 72.0717 51.0055 68.9997 56.2962C66.013 61.5015 61.917 65.3842 56.7117 67.9442C51.5917 70.5042 45.7463 71.7842 39.1757 71.7842ZM39.8157 58.0882C43.1437 58.0882 45.917 57.3202 48.1357 55.7842C50.4397 54.2482 52.1463 51.9442 53.2557 48.8722C54.4503 45.7149 55.0477 41.9175 55.0477 37.4802C55.0477 32.7869 54.4077 28.8189 53.1277 25.5762C51.933 22.2482 50.141 19.7309 47.7517 18.0242C45.3623 16.2322 42.333 15.3362 38.6637 15.3362C35.5063 15.3362 32.7757 16.1042 30.4717 17.6402C28.1677 19.0909 26.4183 21.3949 25.2237 24.5522C24.029 27.6242 23.4317 31.4215 23.4317 35.9442C23.4317 43.1975 24.8823 48.7015 27.7837 52.4562C30.685 56.2109 34.6957 58.0882 39.8157 58.0882Z"/>
</mask>
<path d="M39.1757 71.7842C32.4343 71.7842 26.5037 70.4615 21.3837 67.8162C16.2637 65.0855 12.253 61.1175 9.35167 55.9122C6.45034 50.6215 4.99967 44.0509 4.99967 36.2002C4.99967 28.3495 6.45034 21.8215 9.35167 16.6162C12.3383 11.4109 16.3917 7.52819 21.5117 4.96819C26.717 2.32285 32.605 1.00018 39.1757 1.00018C45.917 1.00018 51.8477 2.32285 56.9677 4.96819C62.173 7.61352 66.2263 11.5815 69.1277 16.8722C72.1143 22.0775 73.6077 28.6055 73.6077 36.4562C73.6077 44.3922 72.0717 51.0055 68.9997 56.2962C66.013 61.5015 61.917 65.3842 56.7117 67.9442C51.5917 70.5042 45.7463 71.7842 39.1757 71.7842ZM39.8157 58.0882C43.1437 58.0882 45.917 57.3202 48.1357 55.7842C50.4397 54.2482 52.1463 51.9442 53.2557 48.8722C54.4503 45.7149 55.0477 41.9175 55.0477 37.4802C55.0477 32.7869 54.4077 28.8189 53.1277 25.5762C51.933 22.2482 50.141 19.7309 47.7517 18.0242C45.3623 16.2322 42.333 15.3362 38.6637 15.3362C35.5063 15.3362 32.7757 16.1042 30.4717 17.6402C28.1677 19.0909 26.4183 21.3949 25.2237 24.5522C24.029 27.6242 23.4317 31.4215 23.4317 35.9442C23.4317 43.1975 24.8823 48.7015 27.7837 52.4562C30.685 56.2109 34.6957 58.0882 39.8157 58.0882Z" fill="#F8F9FA"/>
<path d="M21.3837 67.8162L20.913 68.6986L20.9247 68.7046L21.3837 67.8162ZM9.35167 55.9122L8.47484 56.393L8.47819 56.399L9.35167 55.9122ZM9.35167 16.6162L8.48424 16.1185L8.47819 16.1293L9.35167 16.6162ZM21.5117 4.96819L21.9589 5.86263L21.9647 5.85967L21.5117 4.96819ZM56.9677 4.96819L56.5086 5.85663L56.5146 5.85967L56.9677 4.96819ZM69.1277 16.8722L68.2509 17.353L68.2555 17.3615L68.2603 17.3699L69.1277 16.8722ZM68.9997 56.2962L68.1349 55.794L68.1323 55.7985L68.9997 56.2962ZM56.7117 67.9442L56.2703 67.0468L56.2645 67.0498L56.7117 67.9442ZM48.1357 55.7842L47.581 54.9521L47.5737 54.957L47.5665 54.962L48.1357 55.7842ZM53.2557 48.8722L52.3204 48.5183L52.3177 48.5254L52.3151 48.5325L53.2557 48.8722ZM53.1277 25.5762L52.1865 25.9141L52.1918 25.9288L52.1975 25.9434L53.1277 25.5762ZM47.7517 18.0242L47.1517 18.8242L47.161 18.8312L47.1704 18.8379L47.7517 18.0242ZM30.4717 17.6402L31.0045 18.4864L31.0155 18.4795L31.0264 18.4722L30.4717 17.6402ZM25.2237 24.5522L26.1557 24.9146L26.159 24.9061L25.2237 24.5522ZM27.7837 52.4562L26.9924 53.0676V53.0676L27.7837 52.4562ZM39.1757 71.7842V70.7842C32.567 70.7842 26.7985 69.4883 21.8427 66.9278L21.3837 67.8162L20.9247 68.7046C26.2088 71.4348 32.3017 72.7842 39.1757 72.7842V71.7842ZM21.3837 67.8162L21.8543 66.9338C16.9085 64.2961 13.0356 60.4677 10.2252 55.4253L9.35167 55.9122L8.47819 56.399C11.4704 61.7674 15.6188 65.8749 20.9131 68.6985L21.3837 67.8162ZM9.35167 55.9122L10.2285 55.4314C7.42869 50.3259 5.99967 43.9319 5.99967 36.2002H4.99967H3.99967C3.99967 44.1698 5.47198 50.9172 8.47486 56.393L9.35167 55.9122ZM4.99967 36.2002H5.99967C5.99967 28.4676 7.42901 22.1197 10.2252 17.103L9.35167 16.6162L8.47819 16.1293C5.47167 21.5234 3.99967 28.2315 3.99967 36.2002H4.99967ZM9.35167 16.6162L10.219 17.1139C13.1128 12.0705 17.0237 8.3302 21.9589 5.86261L21.5117 4.96819L21.0645 4.07376C15.7596 6.72617 11.5639 10.7512 8.48431 16.1185L9.35167 16.6162ZM21.5117 4.96819L21.9647 5.85967C27.0129 3.29418 32.7425 2.00018 39.1757 2.00018V1.00018V0.000183105C32.4675 0.000183105 26.4211 1.35152 21.0586 4.0767L21.5117 4.96819ZM39.1757 1.00018V2.00018C45.7844 2.00018 51.5528 3.2961 56.5087 5.85661L56.9677 4.96819L57.4267 4.07976C52.1425 1.3496 46.0496 0.000183105 39.1757 0.000183105V1.00018ZM56.9677 4.96819L56.5146 5.85967C61.5344 8.41068 65.4428 12.2325 68.2509 17.353L69.1277 16.8722L70.0045 16.3914C67.0098 10.9305 62.8117 6.81636 57.4207 4.0767L56.9677 4.96819ZM69.1277 16.8722L68.2603 17.3699C71.1373 22.384 72.6077 28.7278 72.6077 36.4562H73.6077H74.6077C74.6077 28.4832 73.0914 21.771 69.995 16.3745L69.1277 16.8722ZM73.6077 36.4562H72.6077C72.6077 44.267 71.0957 50.6948 68.1349 55.7941L68.9997 56.2962L69.8645 56.7983C73.0476 51.3162 74.6077 44.5174 74.6077 36.4562H73.6077ZM68.9997 56.2962L68.1323 55.7985C65.2411 60.8375 61.2906 64.5779 56.2704 67.0468L56.7117 67.9442L57.153 68.8415C62.5434 66.1905 66.7849 62.1655 69.867 56.7939L68.9997 56.2962ZM56.7117 67.9442L56.2645 67.0498C51.3025 69.5307 45.6141 70.7842 39.1757 70.7842V71.7842V72.7842C45.8786 72.7842 51.8808 71.4777 57.1589 68.8386L56.7117 67.9442ZM39.8157 58.0882V59.0882C43.2991 59.0882 46.2835 58.2827 48.7049 56.6064L48.1357 55.7842L47.5665 54.962C45.5505 56.3576 42.9882 57.0882 39.8157 57.0882V58.0882ZM48.1357 55.7842L48.6904 56.6162C51.2027 54.9413 53.0277 52.4477 54.1962 49.2118L53.2557 48.8722L52.3151 48.5325C51.265 51.4406 49.6766 53.555 47.581 54.9521L48.1357 55.7842ZM53.2557 48.8722L54.191 49.2261C55.4395 45.9263 56.0477 42.0025 56.0477 37.4802H55.0477H54.0477C54.0477 41.8326 53.4612 45.5034 52.3204 48.5183L53.2557 48.8722ZM55.0477 37.4802H56.0477C56.0477 32.7021 55.3969 28.6014 54.0578 25.209L53.1277 25.5762L52.1975 25.9434C53.4184 29.0363 54.0477 32.8716 54.0477 37.4802H55.0477ZM53.1277 25.5762L54.0689 25.2383C52.8197 21.7586 50.9192 19.0578 48.3329 17.2105L47.7517 18.0242L47.1704 18.8379C49.3628 20.4039 51.0463 22.7378 52.1865 25.9141L53.1277 25.5762ZM47.7517 18.0242L48.3517 17.2242C45.7528 15.275 42.4989 14.3362 38.6637 14.3362V15.3362V16.3362C42.1671 16.3362 44.9719 17.1893 47.1517 18.8242L47.7517 18.0242ZM38.6637 15.3362V14.3362C35.3374 14.3362 32.4075 15.1478 29.917 16.8081L30.4717 17.6402L31.0264 18.4722C33.1439 17.0606 35.6752 16.3362 38.6637 16.3362V15.3362ZM30.4717 17.6402L29.9389 16.794C27.4103 18.386 25.5412 20.8872 24.2884 24.1983L25.2237 24.5522L26.159 24.9061C27.2954 21.9025 28.9251 19.7957 31.0045 18.4864L30.4717 17.6402ZM25.2237 24.5522L24.2917 24.1897C23.0387 27.4116 22.4317 31.3406 22.4317 35.9442H23.4317H24.4317C24.4317 31.5025 25.0193 27.8368 26.1557 24.9146L25.2237 24.5522ZM23.4317 35.9442H22.4317C22.4317 43.3081 23.9008 49.0668 26.9924 53.0676L27.7837 52.4562L28.575 51.8447C25.8639 48.3362 24.4317 43.087 24.4317 35.9442H23.4317ZM27.7837 52.4562L26.9924 53.0676C30.0997 57.0889 34.4142 59.0882 39.8157 59.0882V58.0882V57.0882C34.9771 57.0882 31.2703 55.3328 28.575 51.8447L27.7837 52.4562Z" fill="black" mask="url(#path-1-outside-1_39_11)"/>
</g>
<defs>
<filter id="filter0_d_39_11" x="0" y="0" width="78.6074" height="80.7842" filterUnits="userSpaceOnUse" color-interpolation-filters="sRGB">
<feFlood flood-opacity="0" result="BackgroundImageFix"/>
<feColorMatrix in="SourceAlpha" type="matrix" values="0 0 0 0 0 0 0 0 0 0 0 0 0 0 0 0 0 0 127 0" result="hardAlpha"/>
<feOffset dy="4"/>
<feGaussianBlur stdDeviation="2"/>
<feComposite in2="hardAlpha" operator="out"/>
<feColorMatrix type="matrix" values="0 0 0 0 0 0 0 0 0 0 0 0 0 0 0 0 0 0 0.25 0"/>
<feBlend mode="normal" in2="BackgroundImageFix" result="effect1_dropShadow_39_11"/>
<feBlend mode="normal" in="SourceGraphic" in2="effect1_dropShadow_39_11" result="shape"/>
</filter>
</defs>
</svg>
