<svg width="75" height="79" viewBox="0 0 75 79" fill="none" xmlns="http://www.w3.org/2000/svg">
<g filter="url(#filter0_d_39_12)">
<mask id="path-1-outside-1_39_12" maskUnits="userSpaceOnUse" x="3.55176" y="-0.0078125" width="68" height="71" fill="black">
<rect fill="white" x="3.55176" y="-0.0078125" width="68" height="71"/>
<path d="M4.99976 69.9922V29.2882V2.79218H20.1038L19.9758 22.8882H22.5358C23.6451 18.0242 25.2238 13.9709 27.2718 10.7282C29.3198 7.48552 31.8798 5.05352 34.9518 3.43218C38.1091 1.81085 41.8211 1.00018 46.0878 1.00018C53.8531 1.00018 59.7411 3.73085 63.7518 9.19218C67.8478 14.6535 69.8958 23.2295 69.8958 34.9202V69.9922H51.3358V36.9682C51.3358 29.8002 50.2691 24.5949 48.1358 21.3522C46.0878 18.0242 43.0584 16.3602 39.0478 16.3602C35.6344 16.3602 32.7758 17.4269 30.4718 19.5602C28.1678 21.6935 26.4184 24.5095 25.2238 28.0082C24.1144 31.4215 23.5171 35.2615 23.4318 39.5282V69.9922H4.99976Z"/>
</mask>
<path d="M4.99976 69.9922V29.2882V2.79218H20.1038L19.9758 22.8882H22.5358C23.6451 18.0242 25.2238 13.9709 27.2718 10.7282C29.3198 7.48552 31.8798 5.05352 34.9518 3.43218C38.1091 1.81085 41.8211 1.00018 46.0878 1.00018C53.8531 1.00018 59.7411 3.73085 63.7518 9.19218C67.8478 14.6535 69.8958 23.2295 69.8958 34.9202V69.9922H51.3358V36.9682C51.3358 29.8002 50.2691 24.5949 48.1358 21.3522C46.0878 18.0242 43.0584 16.3602 39.0478 16.3602C35.6344 16.3602 32.7758 17.4269 30.4718 19.5602C28.1678 21.6935 26.4184 24.5095 25.2238 28.0082C24.1144 31.4215 23.5171 35.2615 23.4318 39.5282V69.9922H4.99976Z" fill="#F8F9FA"/>
<path d="M4.99976 69.9922H3.99976V70.9922H4.99976V69.9922ZM4.99976 2.79218V1.79218H3.99976V2.79218H4.99976ZM20.1038 2.79218L21.1037 2.79855L21.1101 1.79218H20.1038V2.79218ZM19.9758 22.8882L18.9758 22.8818L18.9694 23.8882H19.9758V22.8882ZM22.5358 22.8882V23.8882H23.3334L23.5107 23.1105L22.5358 22.8882ZM27.2718 10.7282L28.1172 11.2622V11.2622L27.2718 10.7282ZM34.9518 3.43218L34.4949 2.54256L34.485 2.5478L34.9518 3.43218ZM63.7518 9.19218L62.9457 9.78412L62.9518 9.79218L63.7518 9.19218ZM69.8958 69.9922V70.9922H70.8958V69.9922H69.8958ZM51.3358 69.9922H50.3358V70.9922H51.3358V69.9922ZM48.1358 21.3522L47.2841 21.8763L47.292 21.8892L47.3003 21.9018L48.1358 21.3522ZM25.2238 28.0082L24.2774 27.685L24.275 27.6921L24.2727 27.6991L25.2238 28.0082ZM23.4318 39.5282L22.432 39.5082L22.4318 39.5182V39.5282H23.4318ZM23.4318 69.9922V70.9922H24.4318V69.9922H23.4318ZM4.99976 69.9922H5.99976V29.2882H4.99976H3.99976V69.9922H4.99976ZM4.99976 29.2882H5.99976V2.79218H4.99976H3.99976V29.2882H4.99976ZM4.99976 2.79218V3.79218H20.1038V2.79218V1.79218H4.99976V2.79218ZM20.1038 2.79218L19.1038 2.78581L18.9758 22.8818L19.9758 22.8882L20.9757 22.8946L21.1037 2.79855L20.1038 2.79218ZM19.9758 22.8882V23.8882H22.5358V22.8882V21.8882H19.9758V22.8882ZM22.5358 22.8882L23.5107 23.1105C24.602 18.3256 26.1449 14.3851 28.1172 11.2622L27.2718 10.7282L26.4263 10.1942C24.3027 13.5566 22.6882 17.7228 21.5608 22.6658L22.5358 22.8882ZM27.2718 10.7282L28.1172 11.2622C30.0818 8.15163 32.517 5.84795 35.4185 4.31657L34.9518 3.43218L34.485 2.5478C31.2426 4.25909 28.5577 6.8194 26.4263 10.1942L27.2718 10.7282ZM34.9518 3.43218L35.4086 4.32175C38.3987 2.78625 41.9481 2.00018 46.0878 2.00018V1.00018V0.000183105C41.694 0.000183105 37.8195 0.835442 34.495 2.54262L34.9518 3.43218ZM46.0878 1.00018V2.00018C53.588 2.00018 59.1529 4.61938 62.9458 9.7841L63.7518 9.19218L64.5578 8.60027C60.3293 2.84232 54.1182 0.000183105 46.0878 0.000183105V1.00018ZM63.7518 9.19218L62.9518 9.79218C66.854 14.9952 68.8958 23.3072 68.8958 34.9202H69.8958H70.8958C70.8958 23.1518 68.8415 14.3118 64.5518 8.59219L63.7518 9.19218ZM69.8958 34.9202H68.8958V69.9922H69.8958H70.8958V34.9202H69.8958ZM69.8958 69.9922V68.9922H51.3358V69.9922V70.9922H69.8958V69.9922ZM51.3358 69.9922H52.3358V36.9682H51.3358H50.3358V69.9922H51.3358ZM51.3358 36.9682H52.3358C52.3358 29.7466 51.2697 24.2963 48.9712 20.8026L48.1358 21.3522L47.3003 21.9018C49.2685 24.8934 50.3358 29.8537 50.3358 36.9682H51.3358ZM48.1358 21.3522L48.9874 20.8281C46.7516 17.1949 43.3945 15.3602 39.0478 15.3602V16.3602V17.3602C42.7223 17.3602 45.4239 18.8534 47.2841 21.8763L48.1358 21.3522ZM39.0478 16.3602V15.3602C35.4064 15.3602 32.298 16.5064 29.7924 18.8264L30.4718 19.5602L31.1512 20.2939C33.2535 18.3473 35.8625 17.3602 39.0478 17.3602V16.3602ZM30.4718 19.5602L29.7924 18.8264C27.3468 21.0908 25.5161 24.0574 24.2774 27.685L25.2238 28.0082L26.1701 28.3313C27.3207 24.9617 28.9887 22.2962 31.1512 20.2939L30.4718 19.5602ZM25.2238 28.0082L24.2727 27.6991C23.1279 31.2216 22.5189 35.1613 22.432 39.5082L23.4318 39.5282L24.4316 39.5482C24.5153 35.3618 25.1009 31.6215 26.1748 28.3173L25.2238 28.0082ZM23.4318 39.5282H22.4318V69.9922H23.4318H24.4318V39.5282H23.4318ZM23.4318 69.9922V68.9922H4.99976V69.9922V70.9922H23.4318V69.9922Z" fill="black" mask="url(#path-1-outside-1_39_12)"/>
</g>
<defs>
<filter id="filter0_d_39_12" x="0" y="0" width="74.8955" height="78.9922" filterUnits="userSpaceOnUse" color-interpolation-filters="sRGB">
<feFlood flood-opacity="0" result="BackgroundImageFix"/>
<feColorMatrix in="SourceAlpha" type="matrix" values="0 0 0 0 0 0 0 0 0 0 0 0 0 0 0 0 0 0 127 0" result="hardAlpha"/>
<feOffset dy="4"/>
<feGaussianBlur stdDeviation="2"/>
<feComposite in2="hardAlpha" operator="out"/>
<feColorMatrix type="matrix" values="0 0 0 0 0 0 0 0 0 0 0 0 0 0 0 0 0 0 0.25 0"/>
<feBlend mode="normal" in2="BackgroundImageFix" result="effect1_dropShadow_39_12"/>
<feBlend mode="normal" in="SourceGraphic" in2="effect1_dropShadow_39_12" result="shape"/>
</filter>
</defs>
</svg>
