<svg width="76" height="81" viewBox="0 0 76 81" fill="none" xmlns="http://www.w3.org/2000/svg">
<g filter="url(#filter0_d_39_14)">
<mask id="path-1-outside-1_39_14" maskUnits="userSpaceOnUse" x="3.26367" y="-0.0078125" width="69" height="73" fill="black">
<rect fill="white" x="3.26367" y="-0.0078125" width="69" height="73"/>
<path d="M39.9437 71.7842C34.397 71.7842 29.4477 71.0162 25.0957 69.4802C20.829 67.9442 17.2023 65.7255 14.2157 62.8242C11.229 59.9229 8.92501 56.3389 7.30367 52.0722C5.76767 47.8055 4.99967 42.9842 4.99967 37.6082C4.99967 32.3175 5.72501 27.4535 7.17567 23.0162C8.71167 18.4935 10.9303 14.6109 13.8317 11.3682C16.733 8.04019 20.2743 5.48019 24.4557 3.68819C28.637 1.89618 33.373 1.00018 38.6637 1.00018C43.7837 1.00018 48.349 1.85352 52.3597 3.56018C56.3703 5.18152 59.6983 7.65619 62.3437 10.9842C65.0743 14.3122 67.037 18.4082 68.2317 23.2722C69.5117 28.0509 69.981 33.5549 69.6397 39.7842L16.9037 40.2962V30.1842L59.0157 29.8002L52.4877 34.9202C53.085 30.3975 52.7863 26.6855 51.5917 23.7842C50.397 20.8829 48.6477 18.7495 46.3437 17.3842C44.125 16.0189 41.6503 15.3362 38.9197 15.3362C35.677 15.3362 32.8183 16.1895 30.3437 17.8962C27.869 19.6029 25.949 22.1202 24.5837 25.4482C23.2183 28.6909 22.5357 32.6162 22.5357 37.2242C22.5357 44.4775 24.1143 49.8109 27.2717 53.2242C30.5143 56.6375 34.7383 58.3442 39.9437 58.3442C42.333 58.3442 44.3383 58.0455 45.9597 57.4482C47.6663 56.7655 49.0317 55.9122 50.0557 54.8882C51.165 53.8642 52.0183 52.7122 52.6157 51.4322C53.2983 50.1522 53.853 48.8722 54.2797 47.5922L70.2797 51.0482C69.5117 54.2055 68.3597 57.0642 66.8237 59.6242C65.373 62.0989 63.4103 64.2749 60.9357 66.1522C58.461 67.9442 55.4743 69.3095 51.9757 70.2482C48.5623 71.2722 44.5517 71.7842 39.9437 71.7842Z"/>
</mask>
<path d="M39.9437 71.7842C34.397 71.7842 29.4477 71.0162 25.0957 69.4802C20.829 67.9442 17.2023 65.7255 14.2157 62.8242C11.229 59.9229 8.92501 56.3389 7.30367 52.0722C5.76767 47.8055 4.99967 42.9842 4.99967 37.6082C4.99967 32.3175 5.72501 27.4535 7.17567 23.0162C8.71167 18.4935 10.9303 14.6109 13.8317 11.3682C16.733 8.04019 20.2743 5.48019 24.4557 3.68819C28.637 1.89618 33.373 1.00018 38.6637 1.00018C43.7837 1.00018 48.349 1.85352 52.3597 3.56018C56.3703 5.18152 59.6983 7.65619 62.3437 10.9842C65.0743 14.3122 67.037 18.4082 68.2317 23.2722C69.5117 28.0509 69.981 33.5549 69.6397 39.7842L16.9037 40.2962V30.1842L59.0157 29.8002L52.4877 34.9202C53.085 30.3975 52.7863 26.6855 51.5917 23.7842C50.397 20.8829 48.6477 18.7495 46.3437 17.3842C44.125 16.0189 41.6503 15.3362 38.9197 15.3362C35.677 15.3362 32.8183 16.1895 30.3437 17.8962C27.869 19.6029 25.949 22.1202 24.5837 25.4482C23.2183 28.6909 22.5357 32.6162 22.5357 37.2242C22.5357 44.4775 24.1143 49.8109 27.2717 53.2242C30.5143 56.6375 34.7383 58.3442 39.9437 58.3442C42.333 58.3442 44.3383 58.0455 45.9597 57.4482C47.6663 56.7655 49.0317 55.9122 50.0557 54.8882C51.165 53.8642 52.0183 52.7122 52.6157 51.4322C53.2983 50.1522 53.853 48.8722 54.2797 47.5922L70.2797 51.0482C69.5117 54.2055 68.3597 57.0642 66.8237 59.6242C65.373 62.0989 63.4103 64.2749 60.9357 66.1522C58.461 67.9442 55.4743 69.3095 51.9757 70.2482C48.5623 71.2722 44.5517 71.7842 39.9437 71.7842Z" fill="#F8F9FA"/>
<path d="M25.0957 69.4802L24.7569 70.4211L24.7629 70.4232L25.0957 69.4802ZM14.2157 62.8242L13.5189 63.5415V63.5415L14.2157 62.8242ZM7.30367 52.0722L6.36278 52.4109L6.36576 52.4192L6.36889 52.4274L7.30367 52.0722ZM7.17567 23.0162L6.22873 22.6946L6.22518 22.7054L7.17567 23.0162ZM13.8317 11.3682L14.577 12.035L14.5854 12.0253L13.8317 11.3682ZM24.4557 3.68819L24.8496 4.60733V4.60733L24.4557 3.68819ZM52.3597 3.56018L51.9681 4.48034L51.9765 4.48389L51.9849 4.48729L52.3597 3.56018ZM62.3437 10.9842L61.5609 11.6064L61.5657 11.6125L61.5706 11.6185L62.3437 10.9842ZM68.2317 23.2722L67.2605 23.5107L67.263 23.5208L67.2657 23.5309L68.2317 23.2722ZM69.6397 39.7842L69.6494 40.7841L70.5869 40.775L70.6382 39.8389L69.6397 39.7842ZM16.9037 40.2962H15.9037V41.3059L16.9134 41.2961L16.9037 40.2962ZM16.9037 30.1842L16.8946 29.1842L15.9037 29.1933V30.1842H16.9037ZM59.0157 29.8002L59.6328 30.587L61.9452 28.7734L59.0066 28.8002L59.0157 29.8002ZM52.4877 34.9202L51.4963 34.7892L51.1752 37.2205L53.1048 35.707L52.4877 34.9202ZM51.5917 23.7842L52.5164 23.4034V23.4034L51.5917 23.7842ZM46.3437 17.3842L45.8196 18.2358L45.8267 18.2402L45.8339 18.2445L46.3437 17.3842ZM30.3437 17.8962L30.9114 18.7194H30.9114L30.3437 17.8962ZM24.5837 25.4482L25.5053 25.8363L25.5088 25.8277L24.5837 25.4482ZM27.2717 53.2242L26.5375 53.9033L26.5467 53.9129L27.2717 53.2242ZM45.9597 57.4482L46.3054 58.3865L46.3183 58.3818L46.3311 58.3767L45.9597 57.4482ZM50.0557 54.8882L49.3774 54.1534L49.3627 54.1669L49.3486 54.1811L50.0557 54.8882ZM52.6157 51.4322L51.7333 50.9616L51.7208 50.9851L51.7095 51.0093L52.6157 51.4322ZM54.2797 47.5922L54.4908 46.6147L53.6145 46.4254L53.331 47.276L54.2797 47.5922ZM70.2797 51.0482L71.2513 51.2845L71.4939 50.2874L70.4908 50.0707L70.2797 51.0482ZM66.8237 59.6242L65.9661 59.1097L65.961 59.1185L66.8237 59.6242ZM60.9357 66.1522L61.5222 66.9621L61.5312 66.9556L61.5401 66.9489L60.9357 66.1522ZM51.9757 70.2482L51.7165 69.2823L51.7024 69.2861L51.6883 69.2904L51.9757 70.2482ZM39.9437 71.7842V70.7842C34.4882 70.7842 29.6545 70.0287 25.4285 68.5372L25.0957 69.4802L24.7629 70.4232C29.2409 72.0037 34.3059 72.7842 39.9437 72.7842V71.7842ZM25.0957 69.4802L25.4344 68.5393C21.2896 67.0472 17.7882 64.9005 14.9125 62.1069L14.2157 62.8242L13.5189 63.5415C16.6165 66.5505 20.3684 68.8412 24.757 70.4211L25.0957 69.4802ZM14.2157 62.8242L14.9125 62.1069C12.0404 59.3169 9.81292 55.8603 8.23846 51.717L7.30367 52.0722L6.36889 52.4274C8.03709 56.8174 10.4176 60.5288 13.5189 63.5415L14.2157 62.8242ZM7.30367 52.0722L8.24456 51.7335C6.75417 47.5935 5.99967 42.8896 5.99967 37.6082H4.99967H3.99967C3.99967 43.0788 4.78117 48.0175 6.36278 52.4109L7.30367 52.0722ZM4.99967 37.6082H5.99967C5.99967 32.4092 6.71234 27.6516 8.12617 23.3269L7.17567 23.0162L6.22518 22.7054C4.73767 27.2555 3.99967 32.2258 3.99967 37.6082H4.99967ZM7.17567 23.0162L8.12255 23.3378C9.61952 18.93 11.7738 15.1679 14.5769 12.035L13.8317 11.3682L13.0864 10.7014C10.0869 14.0538 7.80383 18.057 6.22879 22.6946L7.17567 23.0162ZM13.8317 11.3682L14.5854 12.0253C17.385 8.81408 20.802 6.34199 24.8496 4.60733L24.4557 3.68819L24.0618 2.76904C19.7466 4.61838 16.081 7.26629 13.0779 10.711L13.8317 11.3682ZM24.4557 3.68819L24.8496 4.60733C28.8878 2.87666 33.4866 2.00018 38.6637 2.00018V1.00018V0.000183105C33.2594 0.000183105 28.3862 0.91571 24.0618 2.76904L24.4557 3.68819ZM38.6637 1.00018V2.00018C43.6723 2.00018 48.101 2.83473 51.9681 4.48034L52.3597 3.56018L52.7512 2.64002C48.5971 0.872299 43.8951 0.000183105 38.6637 0.000183105V1.00018ZM52.3597 3.56018L51.9849 4.48729C55.8385 6.04512 59.0249 8.41603 61.5609 11.6064L62.3437 10.9842L63.1265 10.3619C60.3718 6.89634 56.9022 4.31792 52.7345 2.63307L52.3597 3.56018ZM62.3437 10.9842L61.5706 11.6185C64.1922 14.8136 66.0957 18.7682 67.2605 23.5107L68.2317 23.2722L69.2028 23.0337C67.9783 18.0482 65.9565 13.8108 63.1167 10.3499L62.3437 10.9842ZM68.2317 23.2722L67.2657 23.5309C68.5123 28.1848 68.9782 33.5794 68.6412 39.7295L69.6397 39.7842L70.6382 39.8389C70.9839 33.5303 70.511 27.9169 69.1976 23.0135L68.2317 23.2722ZM69.6397 39.7842L69.63 38.7842L16.894 39.2962L16.9037 40.2962L16.9134 41.2961L69.6494 40.7841L69.6397 39.7842ZM16.9037 40.2962H17.9037V30.1842H16.9037H15.9037V40.2962H16.9037ZM16.9037 30.1842L16.9128 31.1841L59.0248 30.8001L59.0157 29.8002L59.0066 28.8002L16.8946 29.1842L16.9037 30.1842ZM59.0157 29.8002L58.3985 29.0133L51.8705 34.1333L52.4877 34.9202L53.1048 35.707L59.6328 30.587L59.0157 29.8002ZM52.4877 34.9202L53.4791 35.0511C54.0896 30.4287 53.8012 26.5237 52.5164 23.4034L51.5917 23.7842L50.667 24.1649C51.7715 26.8473 52.0804 30.3663 51.4963 34.7892L52.4877 34.9202ZM51.5917 23.7842L52.5164 23.4034C51.2538 20.3372 49.3748 18.018 46.8535 16.5239L46.3437 17.3842L45.8339 18.2445C47.9205 19.481 49.5402 21.4285 50.667 24.1649L51.5917 23.7842ZM46.3437 17.3842L46.8678 16.5325C44.4837 15.0654 41.8261 14.3362 38.9197 14.3362V15.3362V16.3362C41.4746 16.3362 43.7663 16.9723 45.8196 18.2358L46.3437 17.3842ZM38.9197 15.3362V14.3362C35.491 14.3362 32.4308 15.242 29.7759 17.073L30.3437 17.8962L30.9114 18.7194C33.2058 17.137 35.863 16.3362 38.9197 16.3362V15.3362ZM30.3437 17.8962L29.7759 17.073C27.1125 18.9098 25.0828 21.597 23.6585 25.0686L24.5837 25.4482L25.5088 25.8277C26.8152 22.6434 28.6255 20.2959 30.9114 18.7194L30.3437 17.8962ZM24.5837 25.4482L23.662 25.0601C22.2317 28.4573 21.5357 32.5222 21.5357 37.2242H22.5357H23.5357C23.5357 32.7102 24.205 28.9244 25.5053 25.8362L24.5837 25.4482ZM22.5357 37.2242H21.5357C21.5357 44.5937 23.1354 50.2252 26.5376 53.9032L27.2717 53.2242L28.0058 52.5451C25.0933 49.3965 23.5357 44.3613 23.5357 37.2242H22.5357ZM27.2717 53.2242L26.5467 53.9129C29.9991 57.5471 34.4963 59.3442 39.9437 59.3442V58.3442V57.3442C34.9804 57.3442 31.0296 55.728 27.9967 52.5354L27.2717 53.2242ZM39.9437 58.3442V59.3442C42.4091 59.3442 44.5399 59.037 46.3054 58.3865L45.9597 57.4482L45.614 56.5098C44.1368 57.0541 42.2569 57.3442 39.9437 57.3442V58.3442ZM45.9597 57.4482L46.3311 58.3767C48.1309 57.6567 49.621 56.7371 50.7628 55.5953L50.0557 54.8882L49.3486 54.1811C48.4424 55.0873 47.2018 55.8743 45.5883 56.5197L45.9597 57.4482ZM50.0557 54.8882L50.734 55.623C51.9322 54.517 52.8659 53.2608 53.5219 51.8551L52.6157 51.4322L51.7095 51.0093C51.1708 52.1636 50.3979 53.2114 49.3774 54.1534L50.0557 54.8882ZM52.6157 51.4322L53.498 51.9028C54.2051 50.5769 54.7827 49.2454 55.2284 47.9084L54.2797 47.5922L53.331 47.276C52.9233 48.4989 52.3915 49.7274 51.7333 50.9616L52.6157 51.4322ZM54.2797 47.5922L54.0685 48.5696L70.0686 52.0256L70.2797 51.0482L70.4908 50.0707L54.4908 46.6147L54.2797 47.5922ZM70.2797 51.0482L69.308 50.8118C68.5617 53.8798 67.446 56.6434 65.9662 59.1097L66.8237 59.6242L67.6812 60.1387C69.2734 57.485 70.4616 54.5312 71.2513 51.2845L70.2797 51.0482ZM66.8237 59.6242L65.961 59.1185C64.5818 61.4711 62.7103 63.5507 60.3313 65.3555L60.9357 66.1522L61.5401 66.9489C64.1103 64.999 66.1642 62.7266 67.6864 60.1299L66.8237 59.6242ZM60.9357 66.1522L60.3492 65.3422C57.9897 67.0508 55.1189 68.3695 51.7165 69.2823L51.9757 70.2482L52.2348 71.214C55.8298 70.2495 58.9323 68.8375 61.5222 66.9621L60.9357 66.1522ZM51.9757 70.2482L51.6883 69.2904C48.3909 70.2796 44.4812 70.7842 39.9437 70.7842V71.7842V72.7842C44.6221 72.7842 48.7338 72.2648 52.263 71.206L51.9757 70.2482Z" fill="black" mask="url(#path-1-outside-1_39_14)"/>
</g>
<defs>
<filter id="filter0_d_39_14" x="0" y="0" width="75.4941" height="80.7842" filterUnits="userSpaceOnUse" color-interpolation-filters="sRGB">
<feFlood flood-opacity="0" result="BackgroundImageFix"/>
<feColorMatrix in="SourceAlpha" type="matrix" values="0 0 0 0 0 0 0 0 0 0 0 0 0 0 0 0 0 0 127 0" result="hardAlpha"/>
<feOffset dy="4"/>
<feGaussianBlur stdDeviation="2"/>
<feComposite in2="hardAlpha" operator="out"/>
<feColorMatrix type="matrix" values="0 0 0 0 0 0 0 0 0 0 0 0 0 0 0 0 0 0 0.25 0"/>
<feBlend mode="normal" in2="BackgroundImageFix" result="effect1_dropShadow_39_14"/>
<feBlend mode="normal" in="SourceGraphic" in2="effect1_dropShadow_39_14" result="shape"/>
</filter>
</defs>
</svg>
