<svg width="84" height="95" viewBox="0 0 84 95" fill="none" xmlns="http://www.w3.org/2000/svg">
<g filter="url(#filter0_d_39_25)">
<mask id="path-1-outside-1_39_25" maskUnits="userSpaceOnUse" x="3.65625" y="-0.519531" width="77" height="87" fill="black">
<rect fill="white" x="3.65625" y="-0.519531" width="77" height="87"/>
<path d="M13.8323 85.4805V70.5045H38.4083C43.1869 70.5045 47.1549 69.4805 50.3123 67.4325C53.4696 65.2991 55.8589 62.2271 57.4803 58.2165C59.1016 54.2058 59.9123 49.2991 59.9123 43.4965C59.9123 38.7178 59.4003 34.6218 58.3763 31.2085C57.3523 27.7098 55.8163 24.8511 53.7683 22.6325C51.8056 20.4138 49.2883 18.7498 46.2163 17.6405C43.2296 16.5311 39.6883 15.9765 35.5923 15.9765H13.8323V1.00047H34.9523C45.1923 1.00047 53.5549 2.66446 60.0403 5.99246C66.5256 9.32047 71.3043 14.0991 74.3763 20.3285C77.4483 26.4725 78.9843 33.8538 78.9843 42.4725C78.9843 48.9578 78.2163 54.5898 76.6803 59.3685C75.1443 64.1471 73.0536 68.2005 70.4083 71.5285C67.8483 74.8565 64.8616 77.5445 61.4482 79.5925C58.0349 81.6405 54.4083 83.1338 50.5683 84.0725C46.7283 85.0111 42.8456 85.4805 38.9203 85.4805H13.8323ZM5.00025 85.4805V1.00047H23.4323V85.4805H5.00025Z"/>
</mask>
<path d="M13.8323 85.4805V70.5045H38.4083C43.1869 70.5045 47.1549 69.4805 50.3123 67.4325C53.4696 65.2991 55.8589 62.2271 57.4803 58.2165C59.1016 54.2058 59.9123 49.2991 59.9123 43.4965C59.9123 38.7178 59.4003 34.6218 58.3763 31.2085C57.3523 27.7098 55.8163 24.8511 53.7683 22.6325C51.8056 20.4138 49.2883 18.7498 46.2163 17.6405C43.2296 16.5311 39.6883 15.9765 35.5923 15.9765H13.8323V1.00047H34.9523C45.1923 1.00047 53.5549 2.66446 60.0403 5.99246C66.5256 9.32047 71.3043 14.0991 74.3763 20.3285C77.4483 26.4725 78.9843 33.8538 78.9843 42.4725C78.9843 48.9578 78.2163 54.5898 76.6803 59.3685C75.1443 64.1471 73.0536 68.2005 70.4083 71.5285C67.8483 74.8565 64.8616 77.5445 61.4482 79.5925C58.0349 81.6405 54.4083 83.1338 50.5683 84.0725C46.7283 85.0111 42.8456 85.4805 38.9203 85.4805H13.8323ZM5.00025 85.4805V1.00047H23.4323V85.4805H5.00025Z" fill="#F8F9FA"/>
<path d="M13.8323 85.4805H12.8323V86.4805H13.8323V85.4805ZM13.8323 70.5045V69.5045H12.8323V70.5045H13.8323ZM50.3123 67.4325L50.8564 68.2714L50.8643 68.2663L50.8721 68.2611L50.3123 67.4325ZM57.4803 58.2165L56.5531 57.8417V57.8417L57.4803 58.2165ZM58.3763 31.2085L57.4165 31.4894L57.4184 31.4958L58.3763 31.2085ZM53.7683 22.6325L53.0193 23.295L53.0263 23.303L53.0335 23.3107L53.7683 22.6325ZM46.2163 17.6405L45.868 18.5779L45.8766 18.581L46.2163 17.6405ZM13.8323 15.9765H12.8323V16.9765H13.8323V15.9765ZM13.8323 1.00047V0.000465393H12.8323V1.00047H13.8323ZM60.0403 5.99246L60.4968 5.10277H60.4968L60.0403 5.99246ZM74.3763 20.3285L73.4794 20.7708L73.4818 20.7757L74.3763 20.3285ZM70.4083 71.5285L69.6254 70.9062L69.6205 70.9125L69.6156 70.9188L70.4083 71.5285ZM61.4482 79.5925L60.9338 78.735V78.735L61.4482 79.5925ZM50.5683 84.0725L50.3308 83.1011L50.5683 84.0725ZM5.00025 85.4805H4.00025V86.4805H5.00025V85.4805ZM5.00025 1.00047V0.000465393H4.00025V1.00047H5.00025ZM23.4323 1.00047H24.4323V0.000465393H23.4323V1.00047ZM23.4323 85.4805V86.4805H24.4323V85.4805H23.4323ZM13.8323 85.4805H14.8323V70.5045H13.8323H12.8323V85.4805H13.8323ZM13.8323 70.5045V71.5045H38.4083V70.5045V69.5045H13.8323V70.5045ZM38.4083 70.5045V71.5045C43.3283 71.5045 47.4985 70.4496 50.8564 68.2714L50.3123 67.4325L49.7681 66.5935C46.8113 68.5114 43.0456 69.5045 38.4083 69.5045V70.5045ZM50.3123 67.4325L50.8721 68.2611C54.2159 66.0017 56.7219 62.7606 58.4074 58.5913L57.4803 58.2165L56.5531 57.8417C54.9959 61.6937 52.7233 64.5965 49.7524 66.6039L50.3123 67.4325ZM57.4803 58.2165L58.4074 58.5913C60.0902 54.4284 60.9123 49.3863 60.9123 43.4965H59.9123H58.9123C58.9123 49.212 58.113 53.9832 56.5531 57.8417L57.4803 58.2165ZM59.9123 43.4965H60.9123C60.9123 38.6514 60.3937 34.4533 59.3341 30.9211L58.3763 31.2085L57.4184 31.4958C58.4068 34.7904 58.9123 38.7842 58.9123 43.4965H59.9123ZM58.3763 31.2085L59.336 30.9276C58.2775 27.3112 56.6752 24.3073 54.5031 21.9542L53.7683 22.6325L53.0335 23.3107C54.9573 25.395 56.427 28.1084 57.4165 31.4894L58.3763 31.2085ZM53.7683 22.6325L54.5173 21.9699C52.4325 19.6132 49.769 17.8602 46.5559 16.6999L46.2163 17.6405L45.8766 18.581C48.8075 19.6394 51.1787 21.2144 53.0193 23.295L53.7683 22.6325ZM46.2163 17.6405L46.5644 16.703C43.4396 15.5424 39.7748 14.9765 35.5923 14.9765V15.9765V16.9765C39.6017 16.9765 43.0196 17.5199 45.8681 18.5779L46.2163 17.6405ZM35.5923 15.9765V14.9765H13.8323V15.9765V16.9765H35.5923V15.9765ZM13.8323 15.9765H14.8323V1.00047H13.8323H12.8323V15.9765H13.8323ZM13.8323 1.00047V2.00047H34.9523V1.00047V0.000465393H13.8323V1.00047ZM34.9523 1.00047V2.00047C45.0939 2.00047 53.2851 3.64996 59.5837 6.88216L60.0403 5.99246L60.4968 5.10277C53.8248 1.67897 45.2906 0.000465393 34.9523 0.000465393V1.00047ZM60.0403 5.99246L59.5837 6.88216C65.8881 10.1173 70.5072 14.7439 73.4794 20.7708L74.3763 20.3285L75.2731 19.8862C72.1013 13.4544 67.163 8.5236 60.4968 5.10277L60.0403 5.99246ZM74.3763 20.3285L73.4818 20.7757C76.469 26.75 77.9843 33.9705 77.9843 42.4725H78.9843H79.9843C79.9843 33.7371 78.4275 26.1949 75.2707 19.8813L74.3763 20.3285ZM78.9843 42.4725H77.9843C77.9843 48.8826 77.2247 54.4067 75.7282 59.0625L76.6803 59.3685L77.6323 59.6745C79.2078 54.7729 79.9843 49.033 79.9843 42.4725H78.9843ZM76.6803 59.3685L75.7282 59.0625C74.2226 63.7467 72.1836 67.6879 69.6254 70.9062L70.4083 71.5285L71.1911 72.1507C73.9236 68.713 76.0659 64.5476 77.6323 59.6745L76.6803 59.3685ZM70.4083 71.5285L69.6156 70.9188C67.1278 74.153 64.2339 76.7549 60.9338 78.735L61.4482 79.5925L61.9627 80.45C65.4893 78.334 68.5687 75.56 71.2009 72.1382L70.4083 71.5285ZM61.4482 79.5925L60.9338 78.735C57.6059 80.7317 54.0726 82.1864 50.3308 83.1011L50.5683 84.0725L50.8057 85.0439C54.7439 84.0812 58.4639 82.5493 61.9627 80.45L61.4482 79.5925ZM50.5683 84.0725L50.3308 83.1011C46.568 84.0209 42.765 84.4805 38.9203 84.4805V85.4805V86.4805C42.9262 86.4805 46.8885 86.0014 50.8057 85.0439L50.5683 84.0725ZM38.9203 85.4805V84.4805H13.8323V85.4805V86.4805H38.9203V85.4805ZM5.00025 85.4805H6.00025V1.00047H5.00025H4.00025V85.4805H5.00025ZM5.00025 1.00047V2.00047H23.4323V1.00047V0.000465393H5.00025V1.00047ZM23.4323 1.00047H22.4323V85.4805H23.4323H24.4323V1.00047H23.4323ZM23.4323 85.4805V84.4805H5.00025V85.4805V86.4805H23.4323V85.4805Z" fill="black" mask="url(#path-1-outside-1_39_25)"/>
</g>
<defs>
<filter id="filter0_d_39_25" x="0" y="0" width="83.9844" height="94.4805" filterUnits="userSpaceOnUse" color-interpolation-filters="sRGB">
<feFlood flood-opacity="0" result="BackgroundImageFix"/>
<feColorMatrix in="SourceAlpha" type="matrix" values="0 0 0 0 0 0 0 0 0 0 0 0 0 0 0 0 0 0 127 0" result="hardAlpha"/>
<feOffset dy="4"/>
<feGaussianBlur stdDeviation="2"/>
<feComposite in2="hardAlpha" operator="out"/>
<feColorMatrix type="matrix" values="0 0 0 0 0 0 0 0 0 0 0 0 0 0 0 0 0 0 0.25 0"/>
<feBlend mode="normal" in2="BackgroundImageFix" result="effect1_dropShadow_39_25"/>
<feBlend mode="normal" in="SourceGraphic" in2="effect1_dropShadow_39_25" result="shape"/>
</filter>
</defs>
</svg>
