<svg width="91" height="95" viewBox="0 0 91 95" fill="none" xmlns="http://www.w3.org/2000/svg">
<g filter="url(#filter0_d_39_21)">
<mask id="path-1-outside-1_39_21" maskUnits="userSpaceOnUse" x="3.65625" y="-0.519531" width="83" height="87" fill="black">
<rect fill="white" x="3.65625" y="-0.519531" width="83" height="87"/>
<path d="M5.00025 85.4805V1.00047H29.0643L67.3363 60.7765H68.7443L67.5923 1.00047H85.5123V85.4805H63.7523L23.3043 22.8885H21.8963L23.0483 85.4805H5.00025Z"/>
</mask>
<path d="M5.00025 85.4805V1.00047H29.0643L67.3363 60.7765H68.7443L67.5923 1.00047H85.5123V85.4805H63.7523L23.3043 22.8885H21.8963L23.0483 85.4805H5.00025Z" fill="#F8F9FA"/>
<path d="M5.00025 85.4805H4.00025V86.4805H5.00025V85.4805ZM5.00025 1.00047V0.000465393H4.00025V1.00047H5.00025ZM29.0643 1.00047L29.9064 0.461258L29.6114 0.000465393H29.0643V1.00047ZM67.3363 60.7765L66.4941 61.3157L66.7891 61.7765H67.3363V60.7765ZM68.7443 60.7765V61.7765H69.7637L69.7441 60.7572L68.7443 60.7765ZM67.5923 1.00047V0.000465393H66.5728L66.5924 1.01974L67.5923 1.00047ZM85.5123 1.00047H86.5123V0.000465393H85.5123V1.00047ZM85.5123 85.4805V86.4805H86.5123V85.4805H85.5123ZM63.7523 85.4805L62.9124 86.0232L63.2078 86.4805H63.7523V85.4805ZM23.3043 22.8885L24.1441 22.3457L23.8487 21.8885H23.3043V22.8885ZM21.8963 22.8885V21.8885H20.8777L20.8964 22.9069L21.8963 22.8885ZM23.0483 85.4805V86.4805H24.0668L24.0481 85.4621L23.0483 85.4805ZM5.00025 85.4805H6.00025V1.00047H5.00025H4.00025V85.4805H5.00025ZM5.00025 1.00047V2.00047H29.0643V1.00047V0.000465393H5.00025V1.00047ZM29.0643 1.00047L28.2221 1.53967L66.4941 61.3157L67.3363 60.7765L68.1784 60.2373L29.9064 0.461258L29.0643 1.00047ZM67.3363 60.7765V61.7765H68.7443V60.7765V59.7765H67.3363V60.7765ZM68.7443 60.7765L69.7441 60.7572L68.5921 0.981194L67.5923 1.00047L66.5924 1.01974L67.7444 60.7957L68.7443 60.7765ZM67.5923 1.00047V2.00047H85.5123V1.00047V0.000465393H67.5923V1.00047ZM85.5123 1.00047H84.5123V85.4805H85.5123H86.5123V1.00047H85.5123ZM85.5123 85.4805V84.4805H63.7523V85.4805V86.4805H85.5123V85.4805ZM63.7523 85.4805L64.5921 84.9377L24.1441 22.3457L23.3043 22.8885L22.4644 23.4312L62.9124 86.0232L63.7523 85.4805ZM23.3043 22.8885V21.8885H21.8963V22.8885V23.8885H23.3043V22.8885ZM21.8963 22.8885L20.8964 22.9069L22.0484 85.4989L23.0483 85.4805L24.0481 85.4621L22.8961 22.8701L21.8963 22.8885ZM23.0483 85.4805V84.4805H5.00025V85.4805V86.4805H23.0483V85.4805Z" fill="black" mask="url(#path-1-outside-1_39_21)"/>
</g>
<defs>
<filter id="filter0_d_39_21" x="0" y="0" width="90.5122" height="94.4805" filterUnits="userSpaceOnUse" color-interpolation-filters="sRGB">
<feFlood flood-opacity="0" result="BackgroundImageFix"/>
<feColorMatrix in="SourceAlpha" type="matrix" values="0 0 0 0 0 0 0 0 0 0 0 0 0 0 0 0 0 0 127 0" result="hardAlpha"/>
<feOffset dy="4"/>
<feGaussianBlur stdDeviation="2"/>
<feComposite in2="hardAlpha" operator="out"/>
<feColorMatrix type="matrix" values="0 0 0 0 0 0 0 0 0 0 0 0 0 0 0 0 0 0 0.25 0"/>
<feBlend mode="normal" in2="BackgroundImageFix" result="effect1_dropShadow_39_21"/>
<feBlend mode="normal" in="SourceGraphic" in2="effect1_dropShadow_39_21" result="shape"/>
</filter>
</defs>
</svg>
