<svg width="79" height="95" viewBox="0 0 79 95" fill="none" xmlns="http://www.w3.org/2000/svg">
<g filter="url(#filter0_d_39_22)">
<mask id="path-1-outside-1_39_22" maskUnits="userSpaceOnUse" x="3.69629" y="-0.519531" width="71" height="87" fill="black">
<rect fill="white" x="3.69629" y="-0.519531" width="71" height="87"/>
<path d="M29.9603 85.4805V1.00047H48.3923V85.4805H29.9603ZM5.00029 16.4885V1.00047H73.3523V16.4885H5.00029Z"/>
</mask>
<path d="M29.9603 85.4805V1.00047H48.3923V85.4805H29.9603ZM5.00029 16.4885V1.00047H73.3523V16.4885H5.00029Z" fill="#F8F9FA"/>
<path d="M29.9603 85.4805H28.9603V86.4805H29.9603V85.4805ZM29.9603 1.00047V0.000465393H28.9603V1.00047H29.9603ZM48.3923 1.00047H49.3923V0.000465393H48.3923V1.00047ZM48.3923 85.4805V86.4805H49.3923V85.4805H48.3923ZM5.00029 16.4885H4.00029V17.4885H5.00029V16.4885ZM5.00029 1.00047V0.000465393H4.00029V1.00047H5.00029ZM73.3523 1.00047H74.3523V0.000465393H73.3523V1.00047ZM73.3523 16.4885V17.4885H74.3523V16.4885H73.3523ZM29.9603 85.4805H30.9603V1.00047H29.9603H28.9603V85.4805H29.9603ZM29.9603 1.00047V2.00047H48.3923V1.00047V0.000465393H29.9603V1.00047ZM48.3923 1.00047H47.3923V85.4805H48.3923H49.3923V1.00047H48.3923ZM48.3923 85.4805V84.4805H29.9603V85.4805V86.4805H48.3923V85.4805ZM5.00029 16.4885H6.00029V1.00047H5.00029H4.00029V16.4885H5.00029ZM5.00029 1.00047V2.00047H73.3523V1.00047V0.000465393H5.00029V1.00047ZM73.3523 1.00047H72.3523V16.4885H73.3523H74.3523V1.00047H73.3523ZM73.3523 16.4885V15.4885H5.00029V16.4885V17.4885H73.3523V16.4885Z" fill="black" mask="url(#path-1-outside-1_39_22)"/>
</g>
<defs>
<filter id="filter0_d_39_22" x="0" y="0" width="78.3525" height="94.4805" filterUnits="userSpaceOnUse" color-interpolation-filters="sRGB">
<feFlood flood-opacity="0" result="BackgroundImageFix"/>
<feColorMatrix in="SourceAlpha" type="matrix" values="0 0 0 0 0 0 0 0 0 0 0 0 0 0 0 0 0 0 127 0" result="hardAlpha"/>
<feOffset dy="4"/>
<feGaussianBlur stdDeviation="2"/>
<feComposite in2="hardAlpha" operator="out"/>
<feColorMatrix type="matrix" values="0 0 0 0 0 0 0 0 0 0 0 0 0 0 0 0 0 0 0.25 0"/>
<feBlend mode="normal" in2="BackgroundImageFix" result="effect1_dropShadow_39_22"/>
<feBlend mode="normal" in="SourceGraphic" in2="effect1_dropShadow_39_22" result="shape"/>
</filter>
</defs>
</svg>
