<svg width="76" height="95" viewBox="0 0 76 95" fill="none" xmlns="http://www.w3.org/2000/svg">
<g filter="url(#filter0_d_39_23)">
<mask id="path-1-outside-1_39_23" maskUnits="userSpaceOnUse" x="3.65625" y="-0.519531" width="68" height="87" fill="black">
<rect fill="white" x="3.65625" y="-0.519531" width="68" height="87"/>
<path d="M5.00025 85.4805V1.00047H23.5603V85.4805H5.00025ZM17.8003 85.4805V70.5045H70.1523V85.4805H17.8003ZM17.8003 49.6405V35.9445H63.7523V49.6405H17.8003ZM17.8003 15.8485V1.00047H69.8963V15.8485H17.8003Z"/>
</mask>
<path d="M5.00025 85.4805V1.00047H23.5603V85.4805H5.00025ZM17.8003 85.4805V70.5045H70.1523V85.4805H17.8003ZM17.8003 49.6405V35.9445H63.7523V49.6405H17.8003ZM17.8003 15.8485V1.00047H69.8963V15.8485H17.8003Z" fill="#F8F9FA"/>
<path d="M5.00025 85.4805H4.00025V86.4805H5.00025V85.4805ZM5.00025 1.00047V0.000465393H4.00025V1.00047H5.00025ZM23.5603 1.00047H24.5603V0.000465393H23.5603V1.00047ZM23.5603 85.4805V86.4805H24.5603V85.4805H23.5603ZM17.8003 85.4805H16.8003V86.4805H17.8003V85.4805ZM17.8003 70.5045V69.5045H16.8003V70.5045H17.8003ZM70.1523 70.5045H71.1523V69.5045H70.1523V70.5045ZM70.1523 85.4805V86.4805H71.1523V85.4805H70.1523ZM17.8003 49.6405H16.8003V50.6405H17.8003V49.6405ZM17.8003 35.9445V34.9445H16.8003V35.9445H17.8003ZM63.7523 35.9445H64.7523V34.9445H63.7523V35.9445ZM63.7523 49.6405V50.6405H64.7523V49.6405H63.7523ZM17.8003 15.8485H16.8003V16.8485H17.8003V15.8485ZM17.8003 1.00047V0.000465393H16.8003V1.00047H17.8003ZM69.8963 1.00047H70.8963V0.000465393H69.8963V1.00047ZM69.8963 15.8485V16.8485H70.8963V15.8485H69.8963ZM5.00025 85.4805H6.00025V1.00047H5.00025H4.00025V85.4805H5.00025ZM5.00025 1.00047V2.00047H23.5603V1.00047V0.000465393H5.00025V1.00047ZM23.5603 1.00047H22.5603V85.4805H23.5603H24.5603V1.00047H23.5603ZM23.5603 85.4805V84.4805H5.00025V85.4805V86.4805H23.5603V85.4805ZM17.8003 85.4805H18.8003V70.5045H17.8003H16.8003V85.4805H17.8003ZM17.8003 70.5045V71.5045H70.1523V70.5045V69.5045H17.8003V70.5045ZM70.1523 70.5045H69.1523V85.4805H70.1523H71.1523V70.5045H70.1523ZM70.1523 85.4805V84.4805H17.8003V85.4805V86.4805H70.1523V85.4805ZM17.8003 49.6405H18.8003V35.9445H17.8003H16.8003V49.6405H17.8003ZM17.8003 35.9445V36.9445H63.7523V35.9445V34.9445H17.8003V35.9445ZM63.7523 35.9445H62.7523V49.6405H63.7523H64.7523V35.9445H63.7523ZM63.7523 49.6405V48.6405H17.8003V49.6405V50.6405H63.7523V49.6405ZM17.8003 15.8485H18.8003V1.00047H17.8003H16.8003V15.8485H17.8003ZM17.8003 1.00047V2.00047H69.8963V1.00047V0.000465393H17.8003V1.00047ZM69.8963 1.00047H68.8963V15.8485H69.8963H70.8963V1.00047H69.8963ZM69.8963 15.8485V14.8485H17.8003V15.8485V16.8485H69.8963V15.8485Z" fill="black" mask="url(#path-1-outside-1_39_23)"/>
</g>
<defs>
<filter id="filter0_d_39_23" x="0" y="0" width="75.1523" height="94.4805" filterUnits="userSpaceOnUse" color-interpolation-filters="sRGB">
<feFlood flood-opacity="0" result="BackgroundImageFix"/>
<feColorMatrix in="SourceAlpha" type="matrix" values="0 0 0 0 0 0 0 0 0 0 0 0 0 0 0 0 0 0 127 0" result="hardAlpha"/>
<feOffset dy="4"/>
<feGaussianBlur stdDeviation="2"/>
<feComposite in2="hardAlpha" operator="out"/>
<feColorMatrix type="matrix" values="0 0 0 0 0 0 0 0 0 0 0 0 0 0 0 0 0 0 0.25 0"/>
<feBlend mode="normal" in2="BackgroundImageFix" result="effect1_dropShadow_39_23"/>
<feBlend mode="normal" in="SourceGraphic" in2="effect1_dropShadow_39_23" result="shape"/>
</filter>
</defs>
</svg>
