<svg width="93" height="95" viewBox="0 0 93 95" fill="none" xmlns="http://www.w3.org/2000/svg">
<g filter="url(#filter0_d_39_30)">
<mask id="path-1-outside-1_39_30" maskUnits="userSpaceOnUse" x="3.07959" y="-0.519531" width="86" height="87" fill="black">
<rect fill="white" x="3.07959" y="-0.519531" width="86" height="87"/>
<path d="M33.2876 85.4805L5.38359 1.00047H25.4796L45.4476 69.8645H47.1116L67.2076 1.00047H87.0476L59.0156 85.4805H33.2876Z"/>
</mask>
<path d="M33.2876 85.4805L5.38359 1.00047H25.4796L45.4476 69.8645H47.1116L67.2076 1.00047H87.0476L59.0156 85.4805H33.2876Z" fill="#F8F9FA"/>
<path d="M33.2876 85.4805L32.338 85.7941L32.5648 86.4805H33.2876V85.4805ZM5.38359 1.00047V0.000465393H4.00015L4.43405 1.3141L5.38359 1.00047ZM25.4796 1.00047L26.44 0.721977L26.2308 0.000465393H25.4796V1.00047ZM45.4476 69.8645L44.4872 70.143L44.6964 70.8645H45.4476V69.8645ZM47.1116 69.8645V70.8645H47.8615L48.0716 70.1446L47.1116 69.8645ZM67.2076 1.00047V0.000465393H66.4577L66.2476 0.720329L67.2076 1.00047ZM87.0476 1.00047L87.9967 1.3154L88.433 0.000465393H87.0476V1.00047ZM59.0156 85.4805V86.4805H59.7374L59.9647 85.7954L59.0156 85.4805ZM33.2876 85.4805L34.2371 85.1668L6.33313 0.686829L5.38359 1.00047L4.43405 1.3141L32.338 85.7941L33.2876 85.4805ZM5.38359 1.00047V2.00047H25.4796V1.00047V0.000465393H5.38359V1.00047ZM25.4796 1.00047L24.5192 1.27895L44.4872 70.143L45.4476 69.8645L46.408 69.586L26.44 0.721977L25.4796 1.00047ZM45.4476 69.8645V70.8645H47.1116V69.8645V68.8645H45.4476V69.8645ZM47.1116 69.8645L48.0716 70.1446L68.1676 1.2806L67.2076 1.00047L66.2476 0.720329L46.1516 69.5843L47.1116 69.8645ZM67.2076 1.00047V2.00047H87.0476V1.00047V0.000465393H67.2076V1.00047ZM87.0476 1.00047L86.0985 0.685532L58.0665 85.1655L59.0156 85.4805L59.9647 85.7954L87.9967 1.3154L87.0476 1.00047ZM59.0156 85.4805V84.4805H33.2876V85.4805V86.4805H59.0156V85.4805Z" fill="black" mask="url(#path-1-outside-1_39_30)"/>
</g>
<defs>
<filter id="filter0_d_39_30" x="0" y="0" width="92.4331" height="94.4805" filterUnits="userSpaceOnUse" color-interpolation-filters="sRGB">
<feFlood flood-opacity="0" result="BackgroundImageFix"/>
<feColorMatrix in="SourceAlpha" type="matrix" values="0 0 0 0 0 0 0 0 0 0 0 0 0 0 0 0 0 0 127 0" result="hardAlpha"/>
<feOffset dy="4"/>
<feGaussianBlur stdDeviation="2"/>
<feComposite in2="hardAlpha" operator="out"/>
<feColorMatrix type="matrix" values="0 0 0 0 0 0 0 0 0 0 0 0 0 0 0 0 0 0 0.25 0"/>
<feBlend mode="normal" in2="BackgroundImageFix" result="effect1_dropShadow_39_30"/>
<feBlend mode="normal" in="SourceGraphic" in2="effect1_dropShadow_39_30" result="shape"/>
</filter>
</defs>
</svg>
