<svg width="55" height="94" viewBox="0 0 55 94" fill="none" xmlns="http://www.w3.org/2000/svg">
<g filter="url(#filter0_d_39_13)">
<mask id="path-1-outside-1_39_13" maskUnits="userSpaceOnUse" x="3.22559" y="-0.824219" width="48" height="87" fill="black">
<rect fill="white" x="3.22559" y="-0.824219" width="48" height="87"/>
<path d="M36.6336 84.7118C29.1243 84.7118 23.5776 82.7491 19.9936 78.8238C16.4949 74.8131 14.7456 68.4558 14.7456 59.7518V30.4398H5.01759L5.27359 15.9758H12.0576C14.7029 15.9758 16.6656 15.5918 17.9456 14.8238C19.2256 14.0558 19.9936 12.6478 20.2496 10.5998L21.9136 0.999779H32.4096V15.9758H49.4336V30.9518H32.4096V58.9838C32.4096 62.0558 33.1349 64.2744 34.5856 65.6398C36.0363 67.0051 38.2549 67.6878 41.2416 67.6878C42.8629 67.6878 44.3989 67.5171 45.8496 67.1758C47.3856 66.8344 48.7083 66.2798 49.8176 65.5118V82.6638C47.1723 83.5171 44.7403 84.0718 42.5216 84.3278C40.3029 84.5838 38.3403 84.7118 36.6336 84.7118Z"/>
</mask>
<path d="M36.6336 84.7118C29.1243 84.7118 23.5776 82.7491 19.9936 78.8238C16.4949 74.8131 14.7456 68.4558 14.7456 59.7518V30.4398H5.01759L5.27359 15.9758H12.0576C14.7029 15.9758 16.6656 15.5918 17.9456 14.8238C19.2256 14.0558 19.9936 12.6478 20.2496 10.5998L21.9136 0.999779H32.4096V15.9758H49.4336V30.9518H32.4096V58.9838C32.4096 62.0558 33.1349 64.2744 34.5856 65.6398C36.0363 67.0051 38.2549 67.6878 41.2416 67.6878C42.8629 67.6878 44.3989 67.5171 45.8496 67.1758C47.3856 66.8344 48.7083 66.2798 49.8176 65.5118V82.6638C47.1723 83.5171 44.7403 84.0718 42.5216 84.3278C40.3029 84.5838 38.3403 84.7118 36.6336 84.7118Z" fill="#F8F9FA"/>
<path d="M19.9936 78.8238L19.24 79.4811L19.2475 79.4897L19.2551 79.498L19.9936 78.8238ZM14.7456 30.4398H15.7456V29.4398H14.7456V30.4398ZM5.01759 30.4398L4.01774 30.4221L3.99973 31.4398H5.01759V30.4398ZM5.27359 15.9758V14.9758H4.29113L4.27374 15.9581L5.27359 15.9758ZM17.9456 14.8238L17.4311 13.9663V13.9663L17.9456 14.8238ZM20.2496 10.5998L19.2643 10.429L19.2602 10.4523L19.2573 10.4757L20.2496 10.5998ZM21.9136 0.999779V-0.000221252H21.072L20.9283 0.828995L21.9136 0.999779ZM32.4096 0.999779H33.4096V-0.000221252H32.4096V0.999779ZM32.4096 15.9758H31.4096V16.9758H32.4096V15.9758ZM49.4336 15.9758H50.4336V14.9758H49.4336V15.9758ZM49.4336 30.9518V31.9518H50.4336V30.9518H49.4336ZM32.4096 30.9518V29.9518H31.4096V30.9518H32.4096ZM34.5856 65.6398L33.9002 66.368H33.9002L34.5856 65.6398ZM45.8496 67.1758L45.6326 66.1995L45.6205 66.2024L45.8496 67.1758ZM49.8176 65.5118H50.8176V63.6032L49.2484 64.6896L49.8176 65.5118ZM49.8176 82.6638L50.1246 83.6155L50.8176 83.3919V82.6638H49.8176ZM42.5216 84.3278L42.6362 85.3212V85.3212L42.5216 84.3278ZM36.6336 84.7118V83.7118C29.2862 83.7118 24.059 81.7933 20.7321 78.1495L19.9936 78.8238L19.2551 79.498C23.0962 83.7049 28.9623 85.7118 36.6336 85.7118V84.7118ZM19.9936 78.8238L20.7472 78.1664C17.4815 74.4229 15.7456 68.3577 15.7456 59.7518H14.7456H13.7456C13.7456 68.5539 15.5083 75.2034 19.24 79.4811L19.9936 78.8238ZM14.7456 59.7518H15.7456V30.4398H14.7456H13.7456V59.7518H14.7456ZM14.7456 30.4398V29.4398H5.01759V30.4398V31.4398H14.7456V30.4398ZM5.01759 30.4398L6.01743 30.4575L6.27343 15.9935L5.27359 15.9758L4.27374 15.9581L4.01774 30.4221L5.01759 30.4398ZM5.27359 15.9758V16.9758H12.0576V15.9758V14.9758H5.27359V15.9758ZM12.0576 15.9758V16.9758C14.7629 16.9758 16.9461 16.5897 18.4601 15.6813L17.9456 14.8238L17.4311 13.9663C16.3851 14.5939 14.6429 14.9758 12.0576 14.9758V15.9758ZM17.9456 14.8238L18.4601 15.6813C20.0947 14.7005 20.9632 12.9528 21.2419 10.7238L20.2496 10.5998L19.2573 10.4757C19.0239 12.3427 18.3564 13.4111 17.4311 13.9663L17.9456 14.8238ZM20.2496 10.5998L21.2349 10.7706L22.8989 1.17056L21.9136 0.999779L20.9283 0.828995L19.2643 10.429L20.2496 10.5998ZM21.9136 0.999779V1.99978H32.4096V0.999779V-0.000221252H21.9136V0.999779ZM32.4096 0.999779H31.4096V15.9758H32.4096H33.4096V0.999779H32.4096ZM32.4096 15.9758V16.9758H49.4336V15.9758V14.9758H32.4096V15.9758ZM49.4336 15.9758H48.4336V30.9518H49.4336H50.4336V15.9758H49.4336ZM49.4336 30.9518V29.9518H32.4096V30.9518V31.9518H49.4336V30.9518ZM32.4096 30.9518H31.4096V58.9838H32.4096H33.4096V30.9518H32.4096ZM32.4096 58.9838H31.4096C31.4096 62.1841 32.1621 64.7321 33.9002 66.368L34.5856 65.6398L35.271 64.9116C34.1078 63.8168 33.4096 61.9275 33.4096 58.9838H32.4096ZM34.5856 65.6398L33.9002 66.368C35.6106 67.9778 38.1248 68.6878 41.2416 68.6878V67.6878V66.6878C38.3851 66.6878 36.4619 66.0324 35.271 64.9116L34.5856 65.6398ZM41.2416 67.6878V68.6878C42.9333 68.6878 44.5466 68.5097 46.0786 68.1492L45.8496 67.1758L45.6205 66.2024C44.2512 66.5246 42.7925 66.6878 41.2416 66.6878V67.6878ZM45.8496 67.1758L46.0665 68.152C47.7081 67.7872 49.155 67.1868 50.3868 66.334L49.8176 65.5118L49.2484 64.6896C48.2615 65.3728 47.0631 65.8817 45.6327 66.1996L45.8496 67.1758ZM49.8176 65.5118H48.8176V82.6638H49.8176H50.8176V65.5118H49.8176ZM49.8176 82.6638L49.5106 81.7121C46.9134 82.5499 44.5467 83.0875 42.407 83.3344L42.5216 84.3278L42.6362 85.3212C44.9338 85.0561 47.4311 84.4843 50.1246 83.6155L49.8176 82.6638ZM42.5216 84.3278L42.407 83.3344C40.2155 83.5872 38.2924 83.7118 36.6336 83.7118V84.7118V85.7118C38.3881 85.7118 40.3904 85.5803 42.6362 85.3212L42.5216 84.3278Z" fill="black" mask="url(#path-1-outside-1_39_13)"/>
</g>
<defs>
<filter id="filter0_d_39_13" x="0" y="0" width="54.8174" height="93.7119" filterUnits="userSpaceOnUse" color-interpolation-filters="sRGB">
<feFlood flood-opacity="0" result="BackgroundImageFix"/>
<feColorMatrix in="SourceAlpha" type="matrix" values="0 0 0 0 0 0 0 0 0 0 0 0 0 0 0 0 0 0 127 0" result="hardAlpha"/>
<feOffset dy="4"/>
<feGaussianBlur stdDeviation="2"/>
<feComposite in2="hardAlpha" operator="out"/>
<feColorMatrix type="matrix" values="0 0 0 0 0 0 0 0 0 0 0 0 0 0 0 0 0 0 0.25 0"/>
<feBlend mode="normal" in2="BackgroundImageFix" result="effect1_dropShadow_39_13"/>
<feBlend mode="normal" in="SourceGraphic" in2="effect1_dropShadow_39_13" result="shape"/>
</filter>
</defs>
</svg>
