<svg width="57" height="102" viewBox="0 0 57 102" fill="none" xmlns="http://www.w3.org/2000/svg">
<g filter="url(#filter0_d_39_4)">
<mask id="path-1-outside-1_39_4" maskUnits="userSpaceOnUse" x="3.05566" y="-0.224609" width="50" height="94" fill="black">
<rect fill="white" x="3.05566" y="-0.224609" width="50" height="94"/>
<path d="M15.6237 92.7754V49.7674H4.99966V36.1994L22.9197 36.9674V34.5354C19.933 33.8527 17.4583 32.7861 15.4957 31.3354C13.6183 29.7994 12.253 27.9647 11.3997 25.8314C10.5463 23.6981 10.1197 21.4367 10.1197 19.0474C10.1197 15.3781 11.0583 12.2207 12.9357 9.57539C14.813 6.84472 17.4583 4.75405 20.8717 3.30338C24.285 1.76739 28.2957 0.99939 32.9037 0.99939C36.829 0.99939 40.3703 1.51139 43.5277 2.53539C46.7703 3.47405 49.373 4.66872 51.3357 6.11938L50.1837 22.7594C48.1357 21.3087 45.8317 20.1141 43.2717 19.1754C40.7117 18.2367 38.2797 17.7674 35.9757 17.7674C33.4157 17.7674 31.2823 18.4501 29.5757 19.8154C27.9543 21.1807 27.1437 23.3994 27.1437 26.4714C27.1437 28.6047 27.5703 30.3114 28.4237 31.5914C29.3623 32.7861 30.4717 33.6821 31.7517 34.2794C33.117 34.7914 34.4397 35.1327 35.7197 35.3034H51.0797V49.7674H33.5437V92.7754H15.6237Z"/>
</mask>
<path d="M15.6237 92.7754V49.7674H4.99966V36.1994L22.9197 36.9674V34.5354C19.933 33.8527 17.4583 32.7861 15.4957 31.3354C13.6183 29.7994 12.253 27.9647 11.3997 25.8314C10.5463 23.6981 10.1197 21.4367 10.1197 19.0474C10.1197 15.3781 11.0583 12.2207 12.9357 9.57539C14.813 6.84472 17.4583 4.75405 20.8717 3.30338C24.285 1.76739 28.2957 0.99939 32.9037 0.99939C36.829 0.99939 40.3703 1.51139 43.5277 2.53539C46.7703 3.47405 49.373 4.66872 51.3357 6.11938L50.1837 22.7594C48.1357 21.3087 45.8317 20.1141 43.2717 19.1754C40.7117 18.2367 38.2797 17.7674 35.9757 17.7674C33.4157 17.7674 31.2823 18.4501 29.5757 19.8154C27.9543 21.1807 27.1437 23.3994 27.1437 26.4714C27.1437 28.6047 27.5703 30.3114 28.4237 31.5914C29.3623 32.7861 30.4717 33.6821 31.7517 34.2794C33.117 34.7914 34.4397 35.1327 35.7197 35.3034H51.0797V49.7674H33.5437V92.7754H15.6237Z" fill="#F8F9FA"/>
<path d="M15.6237 92.7754H14.6237V93.7754H15.6237V92.7754ZM15.6237 49.7674H16.6237V48.7674H15.6237V49.7674ZM4.99966 49.7674H3.99966V50.7674H4.99966V49.7674ZM4.99966 36.1994L5.04248 35.2003L3.99966 35.1556V36.1994H4.99966ZM22.9197 36.9674L22.8768 37.9665L23.9197 38.0112V36.9674H22.9197ZM22.9197 34.5354H23.9197V33.7382L23.1425 33.5605L22.9197 34.5354ZM15.4957 31.3354L14.8624 32.1093L14.8815 32.1249L14.9013 32.1396L15.4957 31.3354ZM11.3997 25.8314L10.4712 26.2028V26.2028L11.3997 25.8314ZM12.9357 9.57539L13.7512 10.1541L13.7555 10.1481L13.7597 10.1419L12.9357 9.57539ZM20.8717 3.30338L21.2628 4.22372L21.2725 4.21961L21.282 4.2153L20.8717 3.30338ZM43.5277 2.53539L43.2192 3.48661L43.2343 3.49152L43.2496 3.49595L43.5277 2.53539ZM51.3357 6.11938L52.3333 6.18845L52.3712 5.64124L51.9301 5.31521L51.3357 6.11938ZM50.1837 22.7594L49.6056 23.5754L51.0583 24.6044L51.1813 22.8285L50.1837 22.7594ZM43.2717 19.1754L43.6159 18.2365H43.6159L43.2717 19.1754ZM29.5757 19.8154L28.951 19.0345L28.9411 19.0424L28.9315 19.0505L29.5757 19.8154ZM28.4237 31.5914L27.5916 32.1461L27.6133 32.1785L27.6373 32.2092L28.4237 31.5914ZM31.7517 34.2794L31.3288 35.1856L31.3641 35.202L31.4005 35.2157L31.7517 34.2794ZM35.7197 35.3034L35.5875 36.2946L35.6533 36.3034H35.7197V35.3034ZM51.0797 35.3034H52.0797V34.3034H51.0797V35.3034ZM51.0797 49.7674V50.7674H52.0797V49.7674H51.0797ZM33.5437 49.7674V48.7674H32.5437V49.7674H33.5437ZM33.5437 92.7754V93.7754H34.5437V92.7754H33.5437ZM15.6237 92.7754H16.6237V49.7674H15.6237H14.6237V92.7754H15.6237ZM15.6237 49.7674V48.7674H4.99966V49.7674V50.7674H15.6237V49.7674ZM4.99966 49.7674H5.99966V36.1994H4.99966H3.99966V49.7674H4.99966ZM4.99966 36.1994L4.95685 37.1985L22.8768 37.9665L22.9197 36.9674L22.9625 35.9683L5.04248 35.2003L4.99966 36.1994ZM22.9197 36.9674H23.9197V34.5354H22.9197H21.9197V36.9674H22.9197ZM22.9197 34.5354L23.1425 33.5605C20.257 32.901 17.9175 31.8819 16.0901 30.5312L15.4957 31.3354L14.9013 32.1396C16.9991 33.6902 19.609 34.8045 22.6968 35.5102L22.9197 34.5354ZM15.4957 31.3354L16.1289 30.5614C14.3749 29.1263 13.1152 27.4275 12.3281 25.46L11.3997 25.8314L10.4712 26.2028C11.3908 28.5019 12.8618 30.4724 14.8624 32.1093L15.4957 31.3354ZM11.3997 25.8314L12.3281 25.46C11.5239 23.4495 11.1197 21.3147 11.1197 19.0474H10.1197H9.11966C9.11966 21.5588 9.56873 23.9466 10.4712 26.2028L11.3997 25.8314ZM10.1197 19.0474H11.1197C11.1197 15.5571 12.0093 12.6087 13.7512 10.1541L12.9357 9.57539L12.1202 8.99664C10.1074 11.8328 9.11966 15.199 9.11966 19.0474H10.1197ZM12.9357 9.57539L13.7597 10.1419C15.5168 7.58616 18.003 5.60915 21.2628 4.22372L20.8717 3.30338L20.4805 2.38305C16.9137 3.89895 14.1092 6.10328 12.1116 9.00886L12.9357 9.57539ZM20.8717 3.30338L21.282 4.2153C24.5401 2.74916 28.4053 1.99939 32.9037 1.99939V0.99939V-0.000610352C28.1861 -0.000610352 24.0299 0.785614 20.4613 2.39146L20.8717 3.30338ZM32.9037 0.99939V1.99939C36.7428 1.99939 40.1777 2.50021 43.2192 3.48661L43.5277 2.53539L43.8362 1.58416C40.5629 0.522568 36.9151 -0.000610352 32.9037 -0.000610352V0.99939ZM43.5277 2.53539L43.2496 3.49595C46.4189 4.41338 48.9028 5.5647 50.7413 6.92356L51.3357 6.11938L51.9301 5.31521C49.8432 3.77274 47.1218 2.53474 43.8057 1.57482L43.5277 2.53539ZM51.3357 6.11938L50.3381 6.05032L49.1861 22.6903L50.1837 22.7594L51.1813 22.8285L52.3333 6.18845L51.3357 6.11938ZM50.1837 22.7594L50.7617 21.9434C48.6356 20.4374 46.2518 19.203 43.6159 18.2365L43.2717 19.1754L42.9274 20.1143C45.4115 21.0251 47.6357 22.1801 49.6056 23.5754L50.1837 22.7594ZM43.2717 19.1754L43.6159 18.2365C40.9654 17.2647 38.4165 16.7674 35.9757 16.7674V17.7674V18.7674C38.1429 18.7674 40.4579 19.2088 42.9274 20.1143L43.2717 19.1754ZM35.9757 17.7674V16.7674C33.2292 16.7674 30.8643 17.5039 28.951 19.0345L29.5757 19.8154L30.2004 20.5963C31.7004 19.3962 33.6021 18.7674 35.9757 18.7674V17.7674ZM29.5757 19.8154L28.9315 19.0505C26.9977 20.679 26.1437 23.2409 26.1437 26.4714H27.1437H28.1437C28.1437 23.5579 28.911 21.6824 30.2198 20.5803L29.5757 19.8154ZM27.1437 26.4714H26.1437C26.1437 28.7284 26.594 30.6496 27.5916 32.1461L28.4237 31.5914L29.2557 31.0367C28.5467 29.9732 28.1437 28.4811 28.1437 26.4714H27.1437ZM28.4237 31.5914L27.6373 32.2092C28.6654 33.5176 29.8961 34.517 31.3288 35.1856L31.7517 34.2794L32.1746 33.3732C31.0472 32.8471 30.0593 32.0545 29.21 30.9736L28.4237 31.5914ZM31.7517 34.2794L31.4005 35.2157C32.8276 35.7509 34.2238 36.1128 35.5875 36.2946L35.7197 35.3034L35.8518 34.3122C34.6555 34.1527 33.4064 33.8319 32.1028 33.3431L31.7517 34.2794ZM35.7197 35.3034V36.3034H51.0797V35.3034V34.3034H35.7197V35.3034ZM51.0797 35.3034H50.0797V49.7674H51.0797H52.0797V35.3034H51.0797ZM51.0797 49.7674V48.7674H33.5437V49.7674V50.7674H51.0797V49.7674ZM33.5437 49.7674H32.5437V92.7754H33.5437H34.5437V49.7674H33.5437ZM33.5437 92.7754V91.7754H15.6237V92.7754V93.7754H33.5437V92.7754Z" fill="black" mask="url(#path-1-outside-1_39_4)"/>
</g>
<defs>
<filter id="filter0_d_39_4" x="0" y="0" width="56.3711" height="101.775" filterUnits="userSpaceOnUse" color-interpolation-filters="sRGB">
<feFlood flood-opacity="0" result="BackgroundImageFix"/>
<feColorMatrix in="SourceAlpha" type="matrix" values="0 0 0 0 0 0 0 0 0 0 0 0 0 0 0 0 0 0 127 0" result="hardAlpha"/>
<feOffset dy="4"/>
<feGaussianBlur stdDeviation="2"/>
<feComposite in2="hardAlpha" operator="out"/>
<feColorMatrix type="matrix" values="0 0 0 0 0 0 0 0 0 0 0 0 0 0 0 0 0 0 0.25 0"/>
<feBlend mode="normal" in2="BackgroundImageFix" result="effect1_dropShadow_39_4"/>
<feBlend mode="normal" in="SourceGraphic" in2="effect1_dropShadow_39_4" result="shape"/>
</filter>
</defs>
</svg>
