<svg width="84" height="95" viewBox="0 0 84 95" fill="none" xmlns="http://www.w3.org/2000/svg">
<g filter="url(#filter0_d_39_19)">
<mask id="path-1-outside-1_39_19" maskUnits="userSpaceOnUse" x="3.65625" y="-0.519531" width="77" height="87" fill="black">
<rect fill="white" x="3.65625" y="-0.519531" width="77" height="87"/>
<path d="M5.00025 85.4805V1.00047H39.3043C43.9123 1.00047 48.0936 1.38447 51.8483 2.15247C55.6029 2.83513 58.9309 3.85913 61.8323 5.22446C64.7336 6.5898 67.1656 8.29647 69.1283 10.3445C71.1763 12.3071 72.7123 14.6111 73.7363 17.2565C74.7603 19.8165 75.2723 22.6751 75.2723 25.8325C75.2723 28.8191 74.8029 31.5498 73.8643 34.0245C72.9256 36.4138 71.5176 38.5045 69.6403 40.2965C67.7629 42.0885 65.4163 43.5818 62.6003 44.7765C59.7843 45.8858 56.4989 46.6538 52.7443 47.0805V49.0005C57.0963 49.4271 60.5523 50.4511 63.1123 52.0725C65.7576 53.6085 67.8056 55.6991 69.2563 58.3445C70.7923 60.9898 72.1149 64.2751 73.2243 68.2005L78.3443 85.4805H57.9923L54.0243 69.4805C53.2563 66.0671 52.1469 63.4218 50.6963 61.5445C49.2456 59.5818 47.4109 58.2165 45.1923 57.4485C42.9736 56.5951 40.2856 56.1685 37.1283 56.1685H23.4323V85.4805H5.00025ZM23.4323 42.3445H38.0243C43.8269 42.3445 48.3069 41.2351 51.4643 39.0165C54.6216 36.7978 56.2003 33.3418 56.2003 28.6485C56.2003 24.0405 54.7069 20.6698 51.7203 18.5365C48.8189 16.3178 44.4243 15.2085 38.5363 15.2085H23.4323V42.3445Z"/>
</mask>
<path d="M5.00025 85.4805V1.00047H39.3043C43.9123 1.00047 48.0936 1.38447 51.8483 2.15247C55.6029 2.83513 58.9309 3.85913 61.8323 5.22446C64.7336 6.5898 67.1656 8.29647 69.1283 10.3445C71.1763 12.3071 72.7123 14.6111 73.7363 17.2565C74.7603 19.8165 75.2723 22.6751 75.2723 25.8325C75.2723 28.8191 74.8029 31.5498 73.8643 34.0245C72.9256 36.4138 71.5176 38.5045 69.6403 40.2965C67.7629 42.0885 65.4163 43.5818 62.6003 44.7765C59.7843 45.8858 56.4989 46.6538 52.7443 47.0805V49.0005C57.0963 49.4271 60.5523 50.4511 63.1123 52.0725C65.7576 53.6085 67.8056 55.6991 69.2563 58.3445C70.7923 60.9898 72.1149 64.2751 73.2243 68.2005L78.3443 85.4805H57.9923L54.0243 69.4805C53.2563 66.0671 52.1469 63.4218 50.6963 61.5445C49.2456 59.5818 47.4109 58.2165 45.1923 57.4485C42.9736 56.5951 40.2856 56.1685 37.1283 56.1685H23.4323V85.4805H5.00025ZM23.4323 42.3445H38.0243C43.8269 42.3445 48.3069 41.2351 51.4643 39.0165C54.6216 36.7978 56.2003 33.3418 56.2003 28.6485C56.2003 24.0405 54.7069 20.6698 51.7203 18.5365C48.8189 16.3178 44.4243 15.2085 38.5363 15.2085H23.4323V42.3445Z" fill="#F8F9FA"/>
<path d="M5.00025 85.4805H4.00025V86.4805H5.00025V85.4805ZM5.00025 1.00047V0.000465393H4.00025V1.00047H5.00025ZM51.8483 2.15247L51.6479 3.13218L51.6586 3.13438L51.6694 3.13634L51.8483 2.15247ZM61.8323 5.22446L62.258 4.31965V4.31965L61.8323 5.22446ZM69.1283 10.3445L68.4063 11.0364L68.421 11.0517L68.4363 11.0665L69.1283 10.3445ZM73.7363 17.2565L72.8036 17.6175L72.8078 17.6279L73.7363 17.2565ZM73.8643 34.0245L74.7951 34.3901L74.7992 34.3791L73.8643 34.0245ZM69.6403 40.2965L68.9498 39.5731V39.5731L69.6403 40.2965ZM62.6003 44.7765L62.9668 45.7069L62.9789 45.7021L62.9908 45.6971L62.6003 44.7765ZM52.7443 47.0805L52.6313 46.0869L51.7443 46.1877V47.0805H52.7443ZM52.7443 49.0005H51.7443V49.9072L52.6467 49.9957L52.7443 49.0005ZM63.1123 52.0725L62.5772 52.9173L62.5935 52.9276L62.6101 52.9373L63.1123 52.0725ZM69.2563 58.3445L68.3794 58.8253L68.3853 58.836L68.3915 58.8466L69.2563 58.3445ZM73.2243 68.2005L72.2619 68.4724L72.2654 68.4846L73.2243 68.2005ZM78.3443 85.4805V86.4805H79.6835L79.3031 85.1964L78.3443 85.4805ZM57.9923 85.4805L57.0217 85.7212L57.21 86.4805H57.9923V85.4805ZM54.0243 69.4805L53.0486 69.7L53.051 69.7106L53.0537 69.7212L54.0243 69.4805ZM50.6963 61.5445L49.8921 62.1389L49.8984 62.1475L49.905 62.1559L50.6963 61.5445ZM45.1923 57.4485L44.8333 58.3818L44.8491 58.3879L44.8651 58.3935L45.1923 57.4485ZM23.4323 56.1685V55.1685H22.4323V56.1685H23.4323ZM23.4323 85.4805V86.4805H24.4323V85.4805H23.4323ZM23.4323 42.3445H22.4323V43.3445H23.4323V42.3445ZM51.4643 39.0165L52.0392 39.8347H52.0392L51.4643 39.0165ZM51.7203 18.5365L51.1128 19.3308L51.1258 19.3407L51.139 19.3502L51.7203 18.5365ZM23.4323 15.2085V14.2085H22.4323V15.2085H23.4323ZM5.00025 85.4805H6.00025V1.00047H5.00025H4.00025V85.4805H5.00025ZM5.00025 1.00047V2.00047H39.3043V1.00047V0.000465393H5.00025V1.00047ZM39.3043 1.00047V2.00047C43.858 2.00047 47.9708 2.38005 51.6479 3.13218L51.8483 2.15247L52.0486 1.17275C48.2164 0.388878 43.9665 0.000465393 39.3043 0.000465393V1.00047ZM51.8483 2.15247L51.6694 3.13634C55.3543 3.80633 58.5969 4.80712 61.4065 6.12928L61.8323 5.22446L62.258 4.31965C59.265 2.91115 55.8515 1.86394 52.0271 1.16859L51.8483 2.15247ZM61.8323 5.22446L61.4065 6.12928C64.2112 7.44917 66.5388 9.08768 68.4063 11.0364L69.1283 10.3445L69.8502 9.65257C67.7924 7.50526 65.256 5.73044 62.258 4.31965L61.8323 5.22446ZM69.1283 10.3445L68.4363 11.0665C70.3787 12.9279 71.8325 15.1086 72.8037 17.6175L73.7363 17.2565L74.6688 16.8955C73.592 14.1136 71.9738 11.6864 69.8202 9.62247L69.1283 10.3445ZM73.7363 17.2565L72.8078 17.6279C73.7782 20.0539 74.2723 22.7841 74.2723 25.8325H75.2723H76.2723C76.2723 22.5662 75.7423 19.5791 74.6647 16.8851L73.7363 17.2565ZM75.2723 25.8325H74.2723C74.2723 28.7134 73.8198 31.322 72.9293 33.6698L73.8643 34.0245L74.7992 34.3791C75.786 31.7776 76.2723 28.9249 76.2723 25.8325H75.2723ZM73.8643 34.0245L72.9335 33.6588C72.0486 35.9113 70.7232 37.8803 68.9498 39.5731L69.6403 40.2965L70.3307 41.0198C72.312 39.1286 73.8026 36.9163 74.795 34.3901L73.8643 34.0245ZM69.6403 40.2965L68.9498 39.5731C67.1738 41.2684 64.9341 42.7001 62.2097 43.8559L62.6003 44.7765L62.9908 45.6971C65.8984 44.4635 68.3521 42.9085 70.3307 41.0198L69.6403 40.2965ZM62.6003 44.7765L62.2337 43.8461C59.5164 44.9165 56.3196 45.6677 52.6313 46.0869L52.7443 47.0805L52.8572 48.0741C56.6782 47.6399 60.0521 46.8551 62.9668 45.7069L62.6003 44.7765ZM52.7443 47.0805H51.7443V49.0005H52.7443H53.7443V47.0805H52.7443ZM52.7443 49.0005L52.6467 49.9957C56.9072 50.4134 60.1946 51.4083 62.5772 52.9173L63.1123 52.0725L63.6473 51.2276C60.9099 49.4939 57.2853 48.4409 52.8418 48.0052L52.7443 49.0005ZM63.1123 52.0725L62.6101 52.9373C65.1002 54.3831 67.0176 56.342 68.3794 58.8253L69.2563 58.3445L70.1331 57.8636C68.5935 55.0563 66.4149 52.8338 63.6144 51.2077L63.1123 52.0725ZM69.2563 58.3445L68.3915 58.8466C69.8742 61.4002 71.1683 64.6026 72.2619 68.4724L73.2243 68.2005L74.1866 67.9285C73.0615 63.9476 71.7103 60.5794 70.121 57.8423L69.2563 58.3445ZM73.2243 68.2005L72.2654 68.4846L77.3855 85.7646L78.3443 85.4805L79.3031 85.1964L74.1831 67.9164L73.2243 68.2005ZM78.3443 85.4805V84.4805H57.9923V85.4805V86.4805H78.3443V85.4805ZM57.9923 85.4805L58.9628 85.2398L54.9949 69.2398L54.0243 69.4805L53.0537 69.7212L57.0217 85.7212L57.9923 85.4805ZM54.0243 69.4805L54.9999 69.261C54.2138 65.7672 53.0596 62.9675 51.4875 60.933L50.6963 61.5445L49.905 62.1559C51.2342 63.8761 52.2987 66.3671 53.0486 69.7L54.0243 69.4805ZM50.6963 61.5445L51.5004 60.9501C49.9348 58.8319 47.9366 57.3402 45.5194 56.5035L45.1923 57.4485L44.8651 58.3935C46.8852 59.0927 48.5564 60.3317 49.8921 62.1389L50.6963 61.5445ZM45.1923 57.4485L45.5512 56.5151C43.1872 55.6059 40.3703 55.1685 37.1283 55.1685V56.1685V57.1685C40.2008 57.1685 42.7599 57.5844 44.8333 58.3818L45.1923 57.4485ZM37.1283 56.1685V55.1685H23.4323V56.1685V57.1685H37.1283V56.1685ZM23.4323 56.1685H22.4323V85.4805H23.4323H24.4323V56.1685H23.4323ZM23.4323 85.4805V84.4805H5.00025V85.4805V86.4805H23.4323V85.4805ZM23.4323 42.3445V43.3445H38.0243V42.3445V41.3445H23.4323V42.3445ZM38.0243 42.3445V43.3445C43.935 43.3445 48.6481 42.2176 52.0392 39.8347L51.4643 39.0165L50.8893 38.1983C47.9657 40.2527 43.7188 41.3445 38.0243 41.3445V42.3445ZM51.4643 39.0165L52.0392 39.8347C55.5222 37.3871 57.2003 33.5877 57.2003 28.6485H56.2003H55.2003C55.2003 33.0959 53.721 36.2085 50.8893 38.1983L51.4643 39.0165ZM56.2003 28.6485H57.2003C57.2003 23.8097 55.6179 20.0916 52.3015 17.7227L51.7203 18.5365L51.139 19.3502C53.7959 21.248 55.2003 24.2712 55.2003 28.6485H56.2003ZM51.7203 18.5365L52.3277 17.7421C49.1739 15.3304 44.5195 14.2085 38.5363 14.2085V15.2085V16.2085C44.329 16.2085 48.464 17.3052 51.1128 19.3308L51.7203 18.5365ZM38.5363 15.2085V14.2085H23.4323V15.2085V16.2085H38.5363V15.2085ZM23.4323 15.2085H22.4323V42.3445H23.4323H24.4323V15.2085H23.4323Z" fill="black" mask="url(#path-1-outside-1_39_19)"/>
</g>
<defs>
<filter id="filter0_d_39_19" x="0" y="0" width="83.6836" height="94.4805" filterUnits="userSpaceOnUse" color-interpolation-filters="sRGB">
<feFlood flood-opacity="0" result="BackgroundImageFix"/>
<feColorMatrix in="SourceAlpha" type="matrix" values="0 0 0 0 0 0 0 0 0 0 0 0 0 0 0 0 0 0 127 0" result="hardAlpha"/>
<feOffset dy="4"/>
<feGaussianBlur stdDeviation="2"/>
<feComposite in2="hardAlpha" operator="out"/>
<feColorMatrix type="matrix" values="0 0 0 0 0 0 0 0 0 0 0 0 0 0 0 0 0 0 0.25 0"/>
<feBlend mode="normal" in2="BackgroundImageFix" result="effect1_dropShadow_39_19"/>
<feBlend mode="normal" in="SourceGraphic" in2="effect1_dropShadow_39_19" result="shape"/>
</filter>
</defs>
</svg>
