<svg width="82" height="78" viewBox="0 0 82 78" fill="none" xmlns="http://www.w3.org/2000/svg">
<g filter="url(#filter0_d_39_37)">
<mask id="path-1-outside-1_39_37" maskUnits="userSpaceOnUse" x="3.98047" y="-0.927734" width="74" height="70" fill="black">
<rect fill="white" x="3.98047" y="-0.927734" width="74" height="70"/>
<path d="M27.7885 68.0723L5.38847 1.00026H25.7405L39.9485 53.4803H41.9965L56.2045 1.00026H75.7885L53.2605 68.0723H27.7885Z"/>
</mask>
<path d="M27.7885 68.0723L5.38847 1.00026H25.7405L39.9485 53.4803H41.9965L56.2045 1.00026H75.7885L53.2605 68.0723H27.7885Z" fill="#F8F9FA"/>
<path d="M27.7885 68.0723L26.84 68.389L27.0681 69.0723H27.7885V68.0723ZM5.38847 1.00026V0.000259399H4.00021L4.43997 1.31703L5.38847 1.00026ZM25.7405 1.00026L26.7057 0.738937L26.5057 0.000259399H25.7405V1.00026ZM39.9485 53.4803L38.9832 53.7416L39.1832 54.4803H39.9485V53.4803ZM41.9965 53.4803V54.4803H42.7617L42.9617 53.7416L41.9965 53.4803ZM56.2045 1.00026V0.000259399H55.4392L55.2392 0.738937L56.2045 1.00026ZM75.7885 1.00026L76.7364 1.31866L77.1793 0.000259399H75.7885V1.00026ZM53.2605 68.0723V69.0723H53.9795L54.2084 68.3907L53.2605 68.0723ZM27.7885 68.0723L28.737 67.7555L6.33697 0.683487L5.38847 1.00026L4.43997 1.31703L26.84 68.389L27.7885 68.0723ZM5.38847 1.00026V2.00026H25.7405V1.00026V0.000259399H5.38847V1.00026ZM25.7405 1.00026L24.7752 1.26158L38.9832 53.7416L39.9485 53.4803L40.9137 53.2189L26.7057 0.738937L25.7405 1.00026ZM39.9485 53.4803V54.4803H41.9965V53.4803V52.4803H39.9485V53.4803ZM41.9965 53.4803L42.9617 53.7416L57.1697 1.26158L56.2045 1.00026L55.2392 0.738937L41.0312 53.2189L41.9965 53.4803ZM56.2045 1.00026V2.00026H75.7885V1.00026V0.000259399H56.2045V1.00026ZM75.7885 1.00026L74.8405 0.681862L52.3125 67.7539L53.2605 68.0723L54.2084 68.3907L76.7364 1.31866L75.7885 1.00026ZM53.2605 68.0723V67.0723H27.7885V68.0723V69.0723H53.2605V68.0723Z" fill="black" mask="url(#path-1-outside-1_39_37)"/>
</g>
<defs>
<filter id="filter0_d_39_37" x="0" y="0" width="81.1792" height="77.0723" filterUnits="userSpaceOnUse" color-interpolation-filters="sRGB">
<feFlood flood-opacity="0" result="BackgroundImageFix"/>
<feColorMatrix in="SourceAlpha" type="matrix" values="0 0 0 0 0 0 0 0 0 0 0 0 0 0 0 0 0 0 127 0" result="hardAlpha"/>
<feOffset dy="4"/>
<feGaussianBlur stdDeviation="2"/>
<feComposite in2="hardAlpha" operator="out"/>
<feColorMatrix type="matrix" values="0 0 0 0 0 0 0 0 0 0 0 0 0 0 0 0 0 0 0.25 0"/>
<feBlend mode="normal" in2="BackgroundImageFix" result="effect1_dropShadow_39_37"/>
<feBlend mode="normal" in="SourceGraphic" in2="effect1_dropShadow_39_37" result="shape"/>
</filter>
</defs>
</svg>
