<svg width="90" height="99" viewBox="0 0 90 99" fill="none" xmlns="http://www.w3.org/2000/svg">
<g filter="url(#filter0_d_39_20)">
<mask id="path-1-outside-1_39_20" maskUnits="userSpaceOnUse" x="3.72803" y="-0.728516" width="83" height="91" fill="black">
<rect fill="white" x="3.72803" y="-0.728516" width="83" height="91"/>
<path d="M44.68 89.0635C38.536 89.0635 33.032 88.1248 28.168 86.2475C23.304 84.2848 19.1227 81.4688 15.624 77.7995C12.2107 74.0448 9.56536 69.4795 7.68803 64.1035C5.89603 58.6422 5.00003 52.4128 5.00003 45.4155C5.00003 35.4315 6.74936 27.1968 10.248 20.7115C13.7467 14.1408 18.5254 9.23415 24.584 5.99148C30.728 2.66348 37.64 0.999481 45.32 0.999481C51.2934 0.999481 56.712 1.98081 61.576 3.94348C66.44 5.82082 70.5787 8.63682 73.992 12.3915C77.4907 16.0608 80.1787 20.6688 82.056 26.2155C83.9334 31.6768 84.872 37.9488 84.872 45.0315C84.872 52.2848 83.9334 58.6422 82.056 64.1035C80.1787 69.5648 77.448 74.1728 73.864 77.9275C70.3654 81.5968 66.1414 84.3702 61.192 86.2475C56.2427 88.1248 50.7387 89.0635 44.68 89.0635ZM45.192 74.3435C49.7147 74.3435 53.512 73.2342 56.584 71.0155C59.656 68.7968 62.0027 65.5968 63.624 61.4155C65.2454 57.2341 66.056 52.1141 66.056 46.0555C66.056 39.7408 65.2027 34.3648 63.496 29.9275C61.8747 25.4902 59.4854 22.1195 56.328 19.8155C53.1707 17.4262 49.3307 16.2315 44.808 16.2315C40.3707 16.2315 36.5734 17.3835 33.416 19.6875C30.344 21.9061 27.9547 25.1488 26.248 29.4155C24.6267 33.6821 23.816 38.9728 23.816 45.2875C23.816 49.8955 24.2854 54.0341 25.224 57.7035C26.248 61.2875 27.656 64.3168 29.448 66.7915C31.24 69.2661 33.4587 71.1435 36.104 72.4235C38.7494 73.7035 41.7787 74.3435 45.192 74.3435Z"/>
</mask>
<path d="M44.68 89.0635C38.536 89.0635 33.032 88.1248 28.168 86.2475C23.304 84.2848 19.1227 81.4688 15.624 77.7995C12.2107 74.0448 9.56536 69.4795 7.68803 64.1035C5.89603 58.6422 5.00003 52.4128 5.00003 45.4155C5.00003 35.4315 6.74936 27.1968 10.248 20.7115C13.7467 14.1408 18.5254 9.23415 24.584 5.99148C30.728 2.66348 37.64 0.999481 45.32 0.999481C51.2934 0.999481 56.712 1.98081 61.576 3.94348C66.44 5.82082 70.5787 8.63682 73.992 12.3915C77.4907 16.0608 80.1787 20.6688 82.056 26.2155C83.9334 31.6768 84.872 37.9488 84.872 45.0315C84.872 52.2848 83.9334 58.6422 82.056 64.1035C80.1787 69.5648 77.448 74.1728 73.864 77.9275C70.3654 81.5968 66.1414 84.3702 61.192 86.2475C56.2427 88.1248 50.7387 89.0635 44.68 89.0635ZM45.192 74.3435C49.7147 74.3435 53.512 73.2342 56.584 71.0155C59.656 68.7968 62.0027 65.5968 63.624 61.4155C65.2454 57.2341 66.056 52.1141 66.056 46.0555C66.056 39.7408 65.2027 34.3648 63.496 29.9275C61.8747 25.4902 59.4854 22.1195 56.328 19.8155C53.1707 17.4262 49.3307 16.2315 44.808 16.2315C40.3707 16.2315 36.5734 17.3835 33.416 19.6875C30.344 21.9061 27.9547 25.1488 26.248 29.4155C24.6267 33.6821 23.816 38.9728 23.816 45.2875C23.816 49.8955 24.2854 54.0341 25.224 57.7035C26.248 61.2875 27.656 64.3168 29.448 66.7915C31.24 69.2661 33.4587 71.1435 36.104 72.4235C38.7494 73.7035 41.7787 74.3435 45.192 74.3435Z" fill="#F8F9FA"/>
<path d="M28.168 86.2475L27.7938 87.1748L27.8009 87.1777L27.808 87.1804L28.168 86.2475ZM15.624 77.7995L14.8841 78.4722L14.8921 78.481L14.9003 78.4896L15.624 77.7995ZM7.68803 64.1035L6.73787 64.4153L6.74082 64.4242L6.74394 64.4332L7.68803 64.1035ZM10.248 20.7115L11.1281 21.1863L11.1307 21.1815L10.248 20.7115ZM24.584 5.99148L25.0559 6.87315L25.0603 6.87077L24.584 5.99148ZM61.576 3.94348L61.2018 4.87083L61.2089 4.87367L61.216 4.8764L61.576 3.94348ZM73.992 12.3915L73.2521 13.0642L73.2601 13.073L73.2683 13.0816L73.992 12.3915ZM82.056 26.2155L81.1088 26.5361L81.1103 26.5406L82.056 26.2155ZM82.056 64.1035L81.1103 63.7784V63.7784L82.056 64.1035ZM73.864 77.9275L73.1407 77.237L73.1403 77.2374L73.864 77.9275ZM61.192 86.2475L61.5467 87.1825H61.5467L61.192 86.2475ZM56.584 71.0155L57.1695 71.8262V71.8262L56.584 71.0155ZM63.624 61.4155L64.5564 61.777V61.777L63.624 61.4155ZM63.496 29.9275L62.5568 30.2707L62.5597 30.2786L62.5627 30.2865L63.496 29.9275ZM56.328 19.8155L55.7246 20.6129L55.7315 20.6181L55.7386 20.6233L56.328 19.8155ZM33.416 19.6875L34.0015 20.4982L34.0055 20.4953L33.416 19.6875ZM26.248 29.4155L25.3196 29.0441L25.3163 29.0522L25.3132 29.0603L26.248 29.4155ZM25.224 57.7035L24.2552 57.9513L24.2587 57.9648L24.2625 57.9782L25.224 57.7035ZM36.104 72.4235L36.5396 71.5233V71.5233L36.104 72.4235ZM44.68 89.0635V88.0635C38.6376 88.0635 33.2587 87.1404 28.5281 85.3146L28.168 86.2475L27.808 87.1804C32.8053 89.1092 38.4344 90.0635 44.68 90.0635V89.0635ZM28.168 86.2475L28.5422 85.3201C23.8056 83.4089 19.7447 80.6721 16.3478 77.1094L15.624 77.7995L14.9003 78.4896C18.5007 82.2656 22.8024 85.1608 27.7938 87.1748L28.168 86.2475ZM15.624 77.7995L16.364 77.1268C13.0515 73.4831 10.4706 69.0384 8.63212 63.7738L7.68803 64.1035L6.74394 64.4332C8.66017 69.9206 11.3699 74.6066 14.8841 78.4722L15.624 77.7995ZM7.68803 64.1035L8.63818 63.7917C6.88548 58.4501 6.00003 52.3291 6.00003 45.4155H5.00003H4.00003C4.00003 52.4965 4.90658 58.8342 6.73787 64.4153L7.68803 64.1035ZM5.00003 45.4155H6.00003C6.00003 35.541 7.73112 27.4832 11.1281 21.1863L10.248 20.7115L9.36793 20.2367C5.7676 26.9105 4.00003 35.322 4.00003 45.4155H5.00003ZM10.248 20.7115L11.1307 21.1815C14.5444 14.7705 19.1866 10.0145 25.0559 6.87314L24.584 5.99148L24.1122 5.10982C17.8642 8.45381 12.949 13.5112 9.36536 20.2415L10.248 20.7115ZM24.584 5.99148L25.0603 6.87077C31.0439 3.62965 37.7895 1.99948 45.32 1.99948V0.999481V-0.000518799C37.4905 -0.000518799 30.4121 1.69731 24.1077 5.11218L24.584 5.99148ZM45.32 0.999481V1.99948C51.1828 1.99948 56.4721 2.96235 61.2018 4.87083L61.576 3.94348L61.9502 3.01613C56.9519 0.999283 51.4039 -0.000518799 45.32 -0.000518799V0.999481ZM61.576 3.94348L61.216 4.8764C65.9389 6.69931 69.9463 9.42783 73.2521 13.0642L73.992 12.3915L74.732 11.7188C71.2111 7.84579 66.9411 4.94232 61.9361 3.01056L61.576 3.94348ZM73.992 12.3915L73.2683 13.0816C76.652 16.6303 79.271 21.1061 81.1088 26.5361L82.056 26.2155L83.0032 25.8949C81.0864 20.2316 78.3294 15.4913 74.7158 11.7014L73.992 12.3915ZM82.056 26.2155L81.1103 26.5406C82.9446 31.8767 83.872 38.0353 83.872 45.0315H84.872H85.872C85.872 37.8623 84.9221 31.477 83.0017 25.8904L82.056 26.2155ZM84.872 45.0315H83.872C83.872 52.2013 82.9439 58.4445 81.1103 63.7784L82.056 64.1035L83.0017 64.4286C84.9229 58.8398 85.872 52.3684 85.872 45.0315H84.872ZM82.056 64.1035L81.1103 63.7784C79.2746 69.1188 76.6144 73.5979 73.1407 77.237L73.864 77.9275L74.5874 78.618C78.2817 74.7477 81.0828 70.0108 83.0017 64.4286L82.056 64.1035ZM73.864 77.9275L73.1403 77.2374C69.7494 80.7937 65.6532 83.4858 60.8374 85.3125L61.192 86.2475L61.5467 87.1825C66.6295 85.2545 70.9814 82.3999 74.5878 78.6176L73.864 77.9275ZM61.192 86.2475L60.8374 85.3125C56.0165 87.1411 50.6348 88.0635 44.68 88.0635V89.0635V90.0635C50.8426 90.0635 56.4689 89.1085 61.5467 87.1825L61.192 86.2475ZM45.192 74.3435V75.3435C49.8832 75.3435 53.8961 74.1903 57.1695 71.8262L56.584 71.0155L55.9985 70.2048C53.1279 72.278 49.5462 73.3435 45.192 73.3435V74.3435ZM56.584 71.0155L57.1695 71.8262C60.4249 69.475 62.8783 66.1048 64.5564 61.777L63.624 61.4155L62.6917 61.054C61.1271 65.0888 58.8871 68.1186 55.9985 70.2048L56.584 71.0155ZM63.624 61.4155L64.5564 61.777C66.2351 57.4477 67.056 52.1971 67.056 46.0555H66.056H65.056C65.056 52.0312 64.2556 57.0206 62.6917 61.054L63.624 61.4155ZM66.056 46.0555H67.056C67.056 39.6561 66.1919 34.1512 64.4294 29.5685L63.496 29.9275L62.5627 30.2865C64.2135 34.5785 65.056 39.8256 65.056 46.0555H66.056ZM63.496 29.9275L64.4353 29.5843C62.7603 25.0002 60.2657 21.451 56.9175 19.0077L56.328 19.8155L55.7386 20.6233C58.7051 22.788 60.9891 25.9801 62.5568 30.2707L63.496 29.9275ZM56.328 19.8155L56.9315 19.0181C53.5763 16.479 49.5162 15.2315 44.808 15.2315V16.2315V17.2315C49.1452 17.2315 52.7651 18.3733 55.7246 20.6129L56.328 19.8155ZM44.808 16.2315V15.2315C40.1887 15.2315 36.1777 16.4343 32.8266 18.8797L33.416 19.6875L34.0055 20.4953C36.969 18.3327 40.5527 17.2315 44.808 17.2315V16.2315ZM33.416 19.6875L32.8305 18.8768C29.575 21.228 27.0815 24.6391 25.3196 29.0441L26.248 29.4155L27.1765 29.7869C28.8278 25.6585 31.113 22.5843 34.0015 20.4982L33.416 19.6875ZM26.248 29.4155L25.3132 29.0603C23.6357 33.4748 22.816 38.8947 22.816 45.2875H23.816H24.816C24.816 39.051 25.6177 33.8895 27.1828 29.7707L26.248 29.4155ZM23.816 45.2875H22.816C22.816 49.9617 23.2919 54.1858 24.2552 57.9513L25.224 57.7035L26.1928 57.4557C25.2788 53.8825 24.816 49.8292 24.816 45.2875H23.816ZM25.224 57.7035L24.2625 57.9782C25.3117 61.6503 26.7646 64.7908 28.6381 67.378L29.448 66.7915L30.258 66.205C28.5474 63.8428 27.1844 60.9246 26.1856 57.4288L25.224 57.7035ZM29.448 66.7915L28.6381 67.378C30.523 69.981 32.8683 71.9687 35.6685 73.3236L36.104 72.4235L36.5396 71.5233C34.0491 70.3182 31.957 68.5513 30.258 66.205L29.448 66.7915ZM36.104 72.4235L35.6685 73.3236C38.4699 74.6792 41.6521 75.3435 45.192 75.3435V74.3435V73.3435C41.9053 73.3435 39.0288 72.7278 36.5396 71.5233L36.104 72.4235Z" fill="black" mask="url(#path-1-outside-1_39_20)"/>
</g>
<defs>
<filter id="filter0_d_39_20" x="0" y="0" width="89.8721" height="98.0635" filterUnits="userSpaceOnUse" color-interpolation-filters="sRGB">
<feFlood flood-opacity="0" result="BackgroundImageFix"/>
<feColorMatrix in="SourceAlpha" type="matrix" values="0 0 0 0 0 0 0 0 0 0 0 0 0 0 0 0 0 0 127 0" result="hardAlpha"/>
<feOffset dy="4"/>
<feGaussianBlur stdDeviation="2"/>
<feComposite in2="hardAlpha" operator="out"/>
<feColorMatrix type="matrix" values="0 0 0 0 0 0 0 0 0 0 0 0 0 0 0 0 0 0 0.25 0"/>
<feBlend mode="normal" in2="BackgroundImageFix" result="effect1_dropShadow_39_20"/>
<feBlend mode="normal" in="SourceGraphic" in2="effect1_dropShadow_39_20" result="shape"/>
</filter>
</defs>
</svg>
