<svg width="80" height="95" viewBox="0 0 80 95" fill="none" xmlns="http://www.w3.org/2000/svg">
<g filter="url(#filter0_d_39_34)">
<mask id="path-1-outside-1_39_34" maskUnits="userSpaceOnUse" x="3.65601" y="-0.519531" width="72" height="87" fill="black">
<rect fill="white" x="3.65601" y="-0.519531" width="72" height="87"/>
<path d="M17.928 61.6725V47.2085H37.256C43.4 47.2085 48.008 45.9711 51.08 43.4965C54.152 40.9365 55.688 36.7551 55.688 30.9525C55.688 25.8325 54.2373 21.9498 51.336 19.3045C48.52 16.5738 44.1253 15.2085 38.152 15.2085H17.928V1.00047H38.664C44.1253 1.00047 49.032 1.64046 53.384 2.92046C57.8213 4.20046 61.576 6.12046 64.648 8.68047C67.8053 11.1551 70.1947 14.3125 71.816 18.1525C73.4373 21.9071 74.248 26.3445 74.248 31.4645C74.248 38.0351 72.7547 43.5818 69.768 48.1045C66.7813 52.5418 62.344 55.9125 56.456 58.2165C50.6533 60.5205 43.4 61.6725 34.696 61.6725H17.928ZM5.00001 85.4805V1.00047H23.432V85.4805H5.00001Z"/>
</mask>
<path d="M17.928 61.6725V47.2085H37.256C43.4 47.2085 48.008 45.9711 51.08 43.4965C54.152 40.9365 55.688 36.7551 55.688 30.9525C55.688 25.8325 54.2373 21.9498 51.336 19.3045C48.52 16.5738 44.1253 15.2085 38.152 15.2085H17.928V1.00047H38.664C44.1253 1.00047 49.032 1.64046 53.384 2.92046C57.8213 4.20046 61.576 6.12046 64.648 8.68047C67.8053 11.1551 70.1947 14.3125 71.816 18.1525C73.4373 21.9071 74.248 26.3445 74.248 31.4645C74.248 38.0351 72.7547 43.5818 69.768 48.1045C66.7813 52.5418 62.344 55.9125 56.456 58.2165C50.6533 60.5205 43.4 61.6725 34.696 61.6725H17.928ZM5.00001 85.4805V1.00047H23.432V85.4805H5.00001Z" fill="#F8F9FA"/>
<path d="M17.928 61.6725H16.928V62.6725H17.928V61.6725ZM17.928 47.2085V46.2085H16.928V47.2085H17.928ZM51.08 43.4965L51.7073 44.2752L51.7138 44.27L51.7202 44.2647L51.08 43.4965ZM51.336 19.3045L50.6399 20.0224L50.6509 20.0331L50.6623 20.0434L51.336 19.3045ZM17.928 15.2085H16.928V16.2085H17.928V15.2085ZM17.928 1.00047V0.000465393H16.928V1.00047H17.928ZM53.384 2.92046L53.1018 3.87984L53.1068 3.88129L53.384 2.92046ZM64.648 8.68047L64.0078 9.44868L64.0193 9.45828L64.0311 9.46752L64.648 8.68047ZM71.816 18.1525L70.8947 18.5415L70.8979 18.5489L71.816 18.1525ZM69.768 48.1045L70.5976 48.6629L70.6025 48.6555L69.768 48.1045ZM56.456 58.2165L56.0916 57.2852L56.087 57.287L56.456 58.2165ZM5.00001 85.4805H4.00001V86.4805H5.00001V85.4805ZM5.00001 1.00047V0.000465393H4.00001V1.00047H5.00001ZM23.432 1.00047H24.432V0.000465393H23.432V1.00047ZM23.432 85.4805V86.4805H24.432V85.4805H23.432ZM17.928 61.6725H18.928V47.2085H17.928H16.928V61.6725H17.928ZM17.928 47.2085V48.2085H37.256V47.2085V46.2085H17.928V47.2085ZM37.256 47.2085V48.2085C43.5081 48.2085 48.3824 46.9537 51.7073 44.2752L51.08 43.4965L50.4527 42.7177C47.6336 44.9886 43.2919 46.2085 37.256 46.2085V47.2085ZM51.08 43.4965L51.7202 44.2647C55.1084 41.4412 56.688 36.9139 56.688 30.9525H55.688H54.688C54.688 36.5964 53.1956 40.4318 50.4398 42.7282L51.08 43.4965ZM55.688 30.9525H56.688C56.688 25.6416 55.1774 21.4537 52.0098 18.5655L51.336 19.3045L50.6623 20.0434C53.2973 22.4459 54.688 26.0233 54.688 30.9525H55.688ZM51.336 19.3045L52.0322 18.5866C48.9521 15.5998 44.2524 14.2085 38.152 14.2085V15.2085V16.2085C43.9983 16.2085 48.0879 17.5478 50.6399 20.0224L51.336 19.3045ZM38.152 15.2085V14.2085H17.928V15.2085V16.2085H38.152V15.2085ZM17.928 15.2085H18.928V1.00047H17.928H16.928V15.2085H17.928ZM17.928 1.00047V2.00047H38.664V1.00047V0.000465393H17.928V1.00047ZM38.664 1.00047V2.00047C44.0486 2.00047 48.8579 2.63161 53.1018 3.87983L53.384 2.92046L53.6662 1.9611C49.2061 0.649323 44.2021 0.000465393 38.664 0.000465393V1.00047ZM53.384 2.92046L53.1068 3.88129C57.4316 5.12881 61.0574 6.99001 64.0078 9.44868L64.648 8.68047L65.2882 7.91225C62.0946 5.25092 58.2111 3.27211 53.6612 1.95964L53.384 2.92046ZM64.648 8.68047L64.0311 9.46752C67.0495 11.8333 69.3368 14.8515 70.8948 18.5414L71.816 18.1525L72.7373 17.7635C71.0526 13.7735 68.5611 10.477 65.2649 7.89341L64.648 8.68047ZM71.816 18.1525L70.8979 18.5489C72.4534 22.1511 73.248 26.4476 73.248 31.4645H74.248H75.248C75.248 26.2413 74.4212 21.6632 72.7341 17.756L71.816 18.1525ZM74.248 31.4645H73.248C73.248 37.8812 71.7912 43.2261 68.9335 47.5534L69.768 48.1045L70.6025 48.6555C73.7182 43.9375 75.248 38.189 75.248 31.4645H74.248ZM69.768 48.1045L68.9384 47.5461C66.0848 51.7858 61.8255 55.0415 56.0916 57.2852L56.456 58.2165L56.8204 59.1477C62.8625 56.7834 67.4779 53.2978 70.5976 48.6628L69.768 48.1045ZM56.456 58.2165L56.087 57.287C50.4382 59.53 43.3199 60.6725 34.696 60.6725V61.6725V62.6725C43.4801 62.6725 50.8685 61.511 56.825 59.1459L56.456 58.2165ZM34.696 61.6725V60.6725H17.928V61.6725V62.6725H34.696V61.6725ZM5.00001 85.4805H6.00001V1.00047H5.00001H4.00001V85.4805H5.00001ZM5.00001 1.00047V2.00047H23.432V1.00047V0.000465393H5.00001V1.00047ZM23.432 1.00047H22.432V85.4805H23.432H24.432V1.00047H23.432ZM23.432 85.4805V84.4805H5.00001V85.4805V86.4805H23.432V85.4805Z" fill="black" mask="url(#path-1-outside-1_39_34)"/>
</g>
<defs>
<filter id="filter0_d_39_34" x="0" y="0" width="79.248" height="94.4805" filterUnits="userSpaceOnUse" color-interpolation-filters="sRGB">
<feFlood flood-opacity="0" result="BackgroundImageFix"/>
<feColorMatrix in="SourceAlpha" type="matrix" values="0 0 0 0 0 0 0 0 0 0 0 0 0 0 0 0 0 0 127 0" result="hardAlpha"/>
<feOffset dy="4"/>
<feGaussianBlur stdDeviation="2"/>
<feComposite in2="hardAlpha" operator="out"/>
<feColorMatrix type="matrix" values="0 0 0 0 0 0 0 0 0 0 0 0 0 0 0 0 0 0 0.25 0"/>
<feBlend mode="normal" in2="BackgroundImageFix" result="effect1_dropShadow_39_34"/>
<feBlend mode="normal" in="SourceGraphic" in2="effect1_dropShadow_39_34" result="shape"/>
</filter>
</defs>
</svg>
